<svg id="Layer_1" xmlns="http://www.w3.org/2000/svg" xmlns:xlink="http://www.w3.org/1999/xlink" viewBox="0 0 512.033 512.033" style="enable-background:new 0 0 512.033 512.033"><g><g><g><path style="fill:#7e5c62" d="M256.017 160.002c-4.422.0-8-3.582-8-8 0-50.566-7.742-117.113-29.562-138.254-3.18-3.074-3.258-8.141-.18-11.312 3.063-3.184 8.148-3.25 11.305-.18 31.953 30.953 34.437 122.441 34.437 149.746C264.017 156.42 260.439 160.002 256.017 160.002z"/></g></g><g><path style="fill:#ff4f19" d="M368.407 128.092c-28.422-4.332-50.734 2.18-70.406 7.918-14.07 4.109-27.359 7.992-41.984 7.992s-27.914-3.883-41.984-7.992c-19.68-5.742-42-12.238-70.406-7.918C96.142 135.334 39.54 162.92 39.54 253.213c0 85.32 28.312 202.008 108.109 250.078 21.016 12.656 45.125 8.938 70.656 5.023 12.375-1.906 25.172-3.875 37.711-3.875s25.336 1.969 37.711 3.875c12.25 1.883 24.18 3.719 35.594 3.719 12.367.0 24.141-2.156 35.063-8.742 79.797-48.07 108.109-164.758 108.109-250.078C472.493 162.92 415.892 135.334 368.407 128.092z"/></g><g><path style="fill:#e3001e" d="M256.02 144.002h-.003c-14.625.0-27.914-3.883-41.984-7.992-19.68-5.742-42-12.238-70.406-7.918C96.142 135.334 39.54 162.92 39.54 253.213c0 85.32 28.312 202.008 108.109 250.078 21.016 12.656 45.125 8.938 70.656 5.023 12.375-1.906 25.172-3.875 37.711-3.875h.003V144.002H256.02z"/></g><g><path style="fill:#60dc4d" d="M367.73 21.908c.946-7.382.837-14.378-.021-20.999-6.62-.858-13.617-.967-20.999-.021-47.93 6.139-91.762 49.971-97.901 97.901-.945 7.382-.837 14.378.022 20.998 6.62.858 13.617.966 20.998.021C317.759 113.669 361.591 69.837 367.73 21.908z"/></g><g><circle style="fill:#ff8c62" cx="383.798" cy="216.002" r="40"/></g><g><path style="fill:#00c37a" d="M367.065.866c-6.434-.785-13.205-.893-20.354.022-47.93 6.139-91.762 49.97-97.901 97.901-.916 7.149-.807 13.919-.022 20.354L367.065.866z"/></g></g><g/><g/><g/><g/><g/><g/><g/><g/><g/><g/><g/><g/><g/><g/><g/></svg>