<svg width="90" height="84" viewBox="0 0 90 84" fill="none" xmlns="http://www.w3.org/2000/svg"><path d="M71.018 8.12064C68.0949 7.75689 65.1746 7.97342 62.3162 8.76496 58.2148 3.56285 51.825.491089 44.999.491089 38.1731.491089 31.7833 3.56483 27.6819 8.76496 24.8235 7.97606 21.9032 7.75821 18.9801 8.12064 8.25136 9.45748.0919955 18.2852 672117e-9 28.6551-.0844715 38.3569 6.68444 46.7681 16.4615 49.1078 18.7831 49.6623 20.4956 51.5735 20.7221 53.8636L22.0226 66.997H22.0213L22.7649 74.4998C23.0808 77.7009 27.2954 79.8986 29.0676 80.6862 29.321 80.7984 29.5242 80.8816 29.6588 80.9357 34.5346 82.909 39.7668 83.8953 44.999 83.8953 50.2299 83.8953 55.4573 82.909 60.3256 80.9384 61.4146 80.506 66.8658 78.1578 67.2291 74.4998L67.9727 66.997H67.9706L69.2711 53.8636C69.4977 51.5735 71.2109 49.6623 73.5324 49.1078 83.3143 46.7668 90.0846 38.3569 89.9995 28.6551 89.9054 18.2852 81.7467 9.45748 71.018 8.12064zM59.1322 78.1861C50.1489 81.823 39.8458 81.825 30.8563 78.1828 28.9213 77.4071 25.9935 75.6108 25.8555 74.2172L25.6632 72.2809C31.8004 75.1335 38.2899 76.578 44.9977 76.578 51.7055 76.578 58.1949 75.1335 64.3321 72.2809L64.1399 74.2172C64.0046 75.6108 61.0747 77.4085 59.1322 78.1861zM72.7868 46.2103C69.1915 47.0711 66.5383 50.034 66.1861 53.5797L64.6837 68.7405C58.471 71.9495 51.8545 73.592 44.999 73.592 38.1436 73.592 31.5271 71.9495 25.3137 68.7405L23.812 53.5797C23.4598 50.0327 20.8066 47.0711 17.2113 46.2103 8.83157 44.2054 3.03014 36.9963 3.10292 28.6802 3.18188 19.7917 10.1788 12.2269 19.3791 11.0808 20.1612 10.9838 20.9446 10.933 21.7267 10.933 23.764 10.933 25.7937 11.2644 27.7829 11.9225L28.9062 12.2942 29.5736 11.3482C33.048 6.42071 38.8145 3.4757 44.999 3.4757 51.1843 3.4757 56.9507 6.42071 60.4251 11.3495L61.0919 12.2955 62.2159 11.9239C64.9686 11.0135 67.7955 10.7303 70.6197 11.0821 79.818 12.2269 86.8162 19.7924 86.8959 28.6809 86.968 36.9977 81.1665 44.2067 72.7868 46.2103z" fill="#333"/><path d="M29.2894 51.2274C28.4393 51.3284 27.8357 52.075 27.9429 52.8923L29.4947 64.8277C29.5922 65.5822 30.261 66.1342 31.0321 66.1342 31.0973 66.1342 31.1612 66.1295 31.2257 66.1223 32.0765 66.0213 32.68 65.2746 32.5729 64.4573L31.0211 52.522C30.914 51.7034 30.1305 51.133 29.2894 51.2274z" fill="#333"/><path d="M40.3436 54.1996C39.4874 54.1996 38.7918 54.8664 38.7918 55.6916V67.6268C38.7918 68.4514 39.4874 69.1182 40.3436 69.1182 41.2006 69.1182 41.8954 68.4514 41.8954 67.6268V55.6916C41.8954 54.8664 41.2006 54.1996 40.3436 54.1996z" fill="#333"/><path d="M60.7088 51.2274C59.8663 51.133 59.0828 51.7034 58.9771 52.522L57.4253 64.4573C57.3195 65.2753 57.9217 66.0213 58.7718 66.1223 58.837 66.1295 58.9022 66.1342 58.9661 66.1342 59.7372 66.1342 60.406 65.5822 60.5035 64.8277L62.0553 52.8923C62.1624 52.075 61.5589 51.3284 60.7088 51.2274z" fill="#333"/><path d="M49.6538 54.1996C48.7976 54.1996 48.102 54.8664 48.102 55.6916V67.6268C48.102 68.4514 48.7976 69.1182 49.6538 69.1182 50.5107 69.1182 51.2056 68.4514 51.2056 67.6268V55.6916C51.2056 54.8664 50.5107 54.1996 49.6538 54.1996z" fill="#333"/><path d="M24.8442 15.4101C11.8899 15.3045 9.36855 25.4315 9.34657 25.5345 9.16187 26.3386 9.69264 27.1334 10.529 27.3097 10.6409 27.3334 10.7542 27.344 10.8627 27.344 11.5754 27.344 12.2188 26.8693 12.3774 26.1715 12.396 26.0923 14.2568 18.2211 24.8112 18.3928 25.6414 18.3373 26.3706 17.7392 26.3802 16.9173 26.3891 16.0947 25.7004 15.4194 24.8442 15.4101z" fill="#333"/><path d="M36.2924 9.75311C35.614 10.2568 35.4884 11.1943 36.013 11.8459 36.5362 12.4981 37.5119 12.6156 38.1896 12.1159 38.2535 12.0664 44.7409 7.36857 51.8697 12.1561 52.1395 12.3383 52.4506 12.4261 52.7575 12.4261 53.2478 12.4261 53.7284 12.2037 54.0312 11.7878 54.5215 11.1131 54.3512 10.1822 53.6481 9.71086 46.4623 4.88765 39.1537 7.63132 36.2924 9.75311z" fill="#333"/></svg>