<svg width="91" height="84" viewBox="0 0 91 84" fill="none" xmlns="http://www.w3.org/2000/svg"><path d="M54.0054 21.1143C54.0054 27.2556 59.378 32.2341 66.0054 32.2341 72.6328 32.2341 78.0054 27.2556 78.0054 21.1143 78.0054 14.9729 72.6328 9.99438 66.0054 9.99438 59.3811 10.0013 54.0128 14.9758 54.0054 21.1143zM66.0054 12.7744C70.976 12.7744 75.0054 16.5083 75.0054 21.1143 75.0054 25.7203 70.976 29.4542 66.0054 29.4542 61.0348 29.4542 57.0054 25.7203 57.0054 21.1143 57.0103 16.5102 61.0369 12.779 66.0054 12.7744z" fill="#333"/><path d="M64.5054 37.7942V40.5742C64.5054 41.3419 65.1769 41.9642 66.0054 41.9642 66.8338 41.9642 67.5054 41.3419 67.5054 40.5742V37.7942C67.5054 37.0265 66.8338 36.4042 66.0054 36.4042 65.1769 36.4042 64.5054 37.0265 64.5054 37.7942z" fill="#333"/><path d="M67.5054 4.43439V1.65448C67.5054.88683 66.8338.264526 66.0054.264526 65.1769.264526 64.5054.88683 64.5054 1.65448V4.43439C64.5054 5.20204 65.1769 5.82434 66.0054 5.82434 66.8338 5.82434 67.5054 5.20204 67.5054 4.43439z" fill="#333"/><path d="M87.0054 22.5043C87.8338 22.5043 88.5054 21.882 88.5054 21.1143 88.5054 20.3467 87.8338 19.7244 87.0054 19.7244h-3C83.1769 19.7244 82.5054 20.3467 82.5054 21.1143 82.5054 21.882 83.1769 22.5043 84.0054 22.5043h3z" fill="#333"/><path d="M45.0054 22.5043h3C48.8338 22.5043 49.5054 21.882 49.5054 21.1143 49.5054 20.3467 48.8338 19.7244 48.0054 19.7244h-3C44.1769 19.7244 43.5054 20.3467 43.5054 21.1143 43.5054 21.882 44.1769 22.5043 45.0054 22.5043z" fill="#333"/><path d="M81.9143 6.37207C81.3286 5.82943 80.3791 5.82943 79.7933 6.37207L77.6723 8.33755C77.2824 8.68654 77.126 9.20336 77.2633 9.68935 77.4006 10.1753 77.8101 10.5549 78.3346 10.6821 78.859 10.8093 79.4167 10.6644 79.7933 10.303L81.9143 8.33755C82.4999 7.79475 82.4999 6.91487 81.9143 6.37207z" fill="#333"/><path d="M50.0964 35.8565C50.6822 36.3991 51.6316 36.3991 52.2174 35.8565L54.3384 33.891C54.9068 33.3456 54.8987 32.4787 54.3201 31.9425 53.7415 31.4064 52.806 31.3988 52.2174 31.9256L50.0964 33.891C49.5108 34.4338 49.5108 35.3137 50.0964 35.8565z" fill="#333"/><path d="M79.7933 31.9256C79.2047 31.3988 78.2692 31.4064 77.6906 31.9425 77.112 32.4787 77.1038 33.3456 77.6723 33.891 79.9793 36.0288 80.0648 36.2651 80.8553 36.2651 81.4619 36.265 82.0087 35.9264 82.2408 35.407 82.4729 34.8877 82.3446 34.29 81.9158 33.8924L79.7933 31.9256z" fill="#333"/><path d="M52.2174 6.37211C51.6288 5.84536 50.6932 5.85289 50.1146 6.38905 49.536 6.9252 49.5279 7.79214 50.0964 8.33753 52.4019 10.4753 52.4874 10.7102 53.2779 10.7102 53.8845 10.7101 54.4313 10.3714 54.6634 9.85211 54.8955 9.3328 54.7672 8.73505 54.3384 8.33753L52.2174 6.37211z" fill="#333"/><path d="M85.5054 61.4238C74.0574 61.4238 75.1554 61.4752 75.2289 61.3223 76.1232 59.4829 75.6915 57.3223 74.1459 55.9014L63.8109 46.3244C60.878 43.6152 56.1327 43.6152 53.1999 46.3244L45.7599 53.2187C44.5887 54.3021 42.692 54.3021 41.5209 53.2187L26.3709 39.1799C30.3334 36.9907 32.2862 32.6588 31.1816 28.5082 30.0771 24.3576 26.1746 21.3636 21.568 21.1327 16.9615 20.9018 12.7332 23.4881 11.1519 27.504 8.79361 26.2421 5.81982 26.5721 3.84985 28.3144 1.50956 30.4852 1.50956 34.0025 3.84985 36.1734L4.40035 36.6835C2.34584 37.1917.742311 38.6805.197818 40.5853-.346674 42.4901.251246 44.5192 1.76485 45.9032L18.5244 61.4238h-6.519C8.69164 61.4238 6.00535 63.9131 6.00535 66.9838 6.00535 70.0544 8.69164 72.5437 12.0054 72.5437h3V79.4936C15.0054 81.7966 17.0201 83.6636 19.5054 83.6636h1.5C23.4906 83.6636 25.5054 81.7966 25.5054 79.4936V72.5437H70.5444C68.2078 75.3996 68.6058 79.4352 71.4623 81.8513 74.3188 84.2675 78.6919 84.2675 81.5484 81.8513 84.405 79.4352 84.803 75.3996 82.4664 72.5437H85.5054C87.9907 72.5437 90.0054 70.6767 90.0054 68.3737V65.5938C90.0054 63.2908 87.9907 61.4238 85.5054 61.4238zM55.3209 48.2843C57.0812 46.6581 59.9295 46.6581 61.6899 48.2843L72.0249 57.8627C72.6769 58.4649 72.8673 59.3744 72.5055 60.1589 72.1437 60.9433 71.3027 61.4444 70.3824 61.4238 69.7561 61.3916 69.1663 61.1402 68.7324 60.7205L59.5689 52.2138C59.2871 51.9519 58.9044 51.8048 58.5054 51.8051 57.6759 51.8051 57.5679 52.0984 54.8169 54.6504L51.6339 51.7009 55.3209 48.2843zM58.5054 55.1619 65.2554 61.4238H51.7554L58.5054 55.1619zM47.8809 55.1786 49.5129 53.6663 52.6974 56.6173 47.5179 61.4238H35.5464L33.5964 59.6168 39.6849 55.3913C42.0488 57.3373 45.6382 57.2441 47.8809 55.1786zM21.0054 23.8942C24.6966 23.8878 27.8418 26.3758 28.414 29.7549 28.9863 33.134 26.8148 36.3953 23.2989 37.4369 22.8589 37.3157 22.4064 37.2374 21.9489 37.2033L13.6674 29.5445C14.3228 26.2677 17.409 23.8914 21.0054 23.8942zM5.96185 30.2784C7.14886 29.2138 9.03334 29.2138 10.2204 30.2784L10.8759 30.8733C10.9944 31.0123 10.6839 30.7107 20.2164 39.5274 20.5095 39.8037 20.9181 39.9479 21.3354 39.9221 23.2479 39.9861 23.8539 40.7714 25.1034 41.9293L24.6714 42.1976C24.2156 42.4696 23.9537 42.9484 23.9864 43.4498 24.019 43.9513 24.3411 44.3974 24.8289 44.6166 25.3166 44.8359 25.8941 44.7943 26.3394 44.5077L27.2664 43.9336 33.2844 49.5089C32.8802 50.0607 32.9559 50.8007 33.4648 51.2723 33.9737 51.7439 34.7724 51.8141 35.3679 51.4396L37.5159 53.4314 31.4574 57.6361C8.44885 36.3735 10.2879 38.004 9.54085 37.5064 9.39085 37.4146 10.3104 38.2194 5.97085 34.1982 4.80519 33.1162 4.80117 31.365 5.96185 30.2784zm3.0435 36.7054C9.00535 65.4484 10.3485 64.2038 12.0054 64.2038h9.519L27.5244 69.7637H12.0054C10.3485 69.7637 9.00535 68.5191 9.00535 66.9838zM22.5054 79.4936C22.5054 80.2613 21.8338 80.8836 21.0054 80.8836h-1.5C18.6769 80.8836 18.0054 80.2613 18.0054 79.4936V72.5437h4.5V79.4936zM81.0054 76.7136C81.0054 79.0167 78.9906 80.8836 76.5054 80.8836 74.0201 80.8836 72.0054 79.0167 72.0054 76.7136 72.0054 74.4106 74.0201 72.5437 76.5054 72.5437 78.9906 72.5437 81.0054 74.4106 81.0054 76.7136zm6-8.3399C87.0054 69.1414 86.3338 69.7637 85.5054 69.7637H31.7664L3.88585 43.9281C2.7167 42.8428 2.7167 41.0852 3.88585 40 5.07731 38.9631 6.93339 38.9631 8.12485 40L33.8049 63.7951C34.087 64.0548 34.4677 64.2015 34.8654 64.2038H85.5054C86.3338 64.2038 87.0054 64.8261 87.0054 65.5938V68.3737z" fill="#333"/><path d="M76.5054 78.1038C77.3338 78.1038 78.0054 77.4814 78.0054 76.7137 78.0054 75.9461 77.3338 75.3237 76.5054 75.3237 75.6769 75.3237 75.0054 75.9461 75.0054 76.7137 75.0054 77.4814 75.6769 78.1038 76.5054 78.1038z" fill="#333"/></svg>