<svg width="40" height="40" viewBox="0 0 40 40" fill="none" xmlns="http://www.w3.org/2000/svg"><path d="M29.7211 19.6464 29.3675 19.9999 29.7211 20.3535 39.1179 29.7502v0C39.6272 30.2595 39.6273 31.0853 39.1179 31.5946l-7.523 7.5229L31.9316 39.4542 31.5948 39.1175C31.0856 39.6268 30.2598 39.6269 29.7504 39.1175L20.3535 29.7208 20 29.3672 19.6464 29.7208l-9.3969 9.3967L10.6031 39.4711 10.2495 39.1175C9.74025 39.6268 8.91442 39.6269 8.40506 39.1175L.882007 31.5946H.881989C.372682 31.0854.372653 30.2596.882009 29.7502L10.2789 20.3533 10.6325 19.9998 10.2789 19.6462.882008 10.2495.881989 10.2494C.372681 9.74019.372653 8.91439.882007 8.40504L8.40498.882252 8.40501.88223C8.91426.372926 9.74009.372898 10.2494.88225L10.6025.529144 10.2495.882253 19.6465 10.279 20 10.6325 20.3536 10.279 29.7505.88225V.882231C30.2598.372926 31.0856.372898 31.5949.88225L39.118 8.4052 39.4694 8.05378 39.118 8.40522C39.6273 8.91446 39.6273 9.74026 39.118 10.2496L29.7211 19.6464z" fill="#ff6465" stroke="#fff"/></svg>