<svg width="40" height="40" viewBox="0 0 40 40" fill="none" xmlns="http://www.w3.org/2000/svg">
<path d="M29.7211 19.6464L29.3675 19.9999L29.7211 20.3535L39.1179 29.7502L39.1179 29.7502C39.6272 30.2595 39.6273 31.0853 39.1179 31.5946L31.5949 39.1175L31.9316 39.4542L31.5948 39.1175C31.0856 39.6268 30.2598 39.6269 29.7504 39.1175L20.3535 29.7208L20 29.3672L19.6464 29.7208L10.2495 39.1175L10.6031 39.4711L10.2495 39.1175C9.74025 39.6268 8.91442 39.6269 8.40506 39.1175L0.882007 31.5946L0.881989 31.5946C0.372682 31.0854 0.372653 30.2596 0.882009 29.7502L10.2789 20.3533L10.6325 19.9998L10.2789 19.6462L0.882008 10.2495L0.881989 10.2494C0.372681 9.74019 0.372653 8.91439 0.882007 8.40504L8.40498 0.882252L8.40501 0.88223C8.91426 0.372926 9.74009 0.372898 10.2494 0.88225L10.6025 0.529144L10.2495 0.882253L19.6465 10.279L20 10.6325L20.3536 10.279L29.7505 0.88225L29.7505 0.882231C30.2598 0.372926 31.0856 0.372898 31.5949 0.88225L39.118 8.4052L39.4694 8.05378L39.118 8.40522C39.6273 8.91446 39.6273 9.74026 39.118 10.2496L29.7211 19.6464Z" fill="#FF6465" stroke="white"/>
</svg>
