<svg width="78" height="78" viewBox="0 0 78 78" fill="none" xmlns="http://www.w3.org/2000/svg">
<path d="M2.1451 26.1122C3.22527 26.6674 4.60845 26.6552 5.6734 26.0811C7.44935 25.1347 9.53378 24.6382 11.6603 24.6551C12.5405 24.6636 13.4164 24.7564 14.2696 24.9315C15.9389 29.9157 16.7564 35.0614 16.6993 40.2251C16.8285 46.3748 15.6195 52.495 13.1277 58.3058C12.7168 58.3529 12.3029 58.3811 11.888 58.3902C9.89747 58.3999 7.94666 57.9395 6.27481 57.0654C5.16061 56.498 3.73096 56.539 2.66926 57.1689C1.60757 57.7988 1.12947 58.8896 1.46349 59.9199C3.69113 66.6137 11.5496 77.8527 39.1522 77.8527C66.7547 77.8527 74.6132 66.6137 76.8408 59.9147C77.1749 58.8844 76.6968 57.7936 75.6351 57.1637C74.5734 56.5338 73.1437 56.4928 72.0295 57.0602C70.3584 57.9362 68.4075 58.3984 66.4163 58.3902C66.0014 58.3811 65.5875 58.3529 65.1766 58.3058C62.6848 52.495 61.4758 46.3748 61.605 40.2251C61.548 35.0614 62.3655 29.9157 64.0347 24.9315C64.888 24.7564 65.7638 24.6636 66.6441 24.6551C68.7696 24.6391 70.8529 25.136 72.6277 26.0824C73.6927 26.6565 75.0759 26.6687 76.156 26.1135C77.2273 25.5741 77.7958 24.5685 77.5994 23.56C75.8176 13.978 67.0771 7.78762 55.3358 7.78762C47.5223 7.78762 43.0012 9.15259 40.5218 10.3826C40.0044 5.949 36.6742 2.05213 31.7299 0.0947412C30.9084 -0.173622 29.9735 0.147622 29.6418 0.812259C29.3101 1.4769 29.7072 2.23324 30.5287 2.50161C34.1644 4.00625 36.6646 6.8508 37.2276 10.1231C34.6375 8.96575 30.2256 7.78762 22.9685 7.78762C11.2273 7.78762 2.4867 13.978 0.698493 23.5587C0.50279 24.5677 1.07258 25.5735 2.1451 26.1122ZM73.744 59.24C71.7553 65.2228 64.6153 75.2577 39.1522 75.2577C13.6891 75.2577 6.54906 65.2228 4.54274 59.2491C6.7299 60.3942 9.28285 60.9976 11.888 60.9852C15.1087 61.0101 18.2354 60.1073 20.7088 58.4382C23.1828 60.1064 26.309 61.0091 29.5295 60.9852C33.1272 61.0312 36.5904 59.8801 39.1089 57.8011C44.1716 61.7897 52.1303 62.064 57.594 58.4382C60.0684 60.1067 63.1953 61.0094 66.4163 60.9852C69.0181 61.0008 71.5676 60.3936 73.744 59.24ZM61.3805 57.3794C60.7716 57.1235 60.1985 56.8156 59.6708 56.4608C58.4762 55.6336 56.7149 55.6336 55.5203 56.4608C53.6254 57.7302 51.2349 58.414 48.7748 58.3902C46.0225 58.4243 43.3689 57.5611 41.4119 55.995C40.1612 54.9905 38.1431 54.9905 36.8925 55.995C34.9354 57.5611 32.2819 58.4243 29.5295 58.3902C27.0695 58.414 24.6789 57.7302 22.7841 56.4608C21.5894 55.6336 19.8281 55.6336 18.6335 56.4608C18.1059 56.8156 17.5327 57.1235 16.9239 57.3794C18.9807 51.8155 19.9864 46.0322 19.9069 40.2251C19.9372 35.5548 19.3087 30.8969 18.0337 26.3419C18.1732 26.4262 18.332 26.4924 18.4667 26.5845C19.6649 27.4092 21.4255 27.4092 22.6237 26.5845C24.541 25.3132 26.9513 24.6299 29.4301 24.6551C32.2027 24.6193 34.8775 25.4833 36.8572 27.0542C37.4554 27.5436 38.2709 27.8189 39.1217 27.8184C39.9727 27.8184 40.7882 27.5427 41.3862 27.0529C43.3848 25.4741 46.0831 24.6103 48.8758 24.6551C51.3545 24.6309 53.7643 25.315 55.6807 26.5871C56.8788 27.4118 58.6395 27.4118 59.8376 26.5871C59.9724 26.495 60.1311 26.4288 60.2707 26.3445C58.9958 30.8987 58.3674 35.5557 58.3974 40.2251C58.3179 46.0322 59.3236 51.8155 61.3805 57.3794ZM22.9685 10.3826C34.6408 10.3826 37.7793 13.69 37.7906 13.7016C38.0886 14.0602 38.5876 14.2752 39.1217 14.2751H39.1826C39.7022 14.2667 40.1873 14.0628 40.4945 13.7237C40.525 13.69 43.6636 10.3826 55.3358 10.3826C65.5551 10.3826 72.8731 15.5791 74.4127 23.9246C69.2627 21.2078 62.5363 21.4818 57.7495 24.6032C55.2359 22.9278 52.0699 22.0268 48.8133 22.0601C45.1927 22.016 41.7055 23.1644 39.1522 25.2416C36.5681 23.1715 33.0664 22.0256 29.4301 22.0601C26.1884 22.0379 23.0401 22.938 20.5356 24.6032C18.0399 22.936 14.8967 22.0353 11.6603 22.0601C8.88819 22.0429 6.17369 22.7002 3.86915 23.9467C5.43123 15.5791 12.7492 10.3826 22.9685 10.3826Z" fill="#333333"/>
<path d="M13.4565 18.9941C15.8522 16.7106 19.4155 15.4483 23.1144 15.5726C24.0002 15.5726 24.7182 14.9917 24.7182 14.2751C24.7182 13.5585 24.0002 12.9776 23.1144 12.9776C18.4527 12.8412 13.9743 14.4534 10.9787 17.3463C10.6119 17.7041 10.5097 18.1934 10.7109 18.6288C10.9121 19.0643 11.3859 19.3794 11.953 19.4548C12.52 19.5303 13.0935 19.3545 13.4565 18.9941Z" fill="#333333"/>
<path d="M25.318 29.8581C24.8969 29.9069 24.517 30.0891 24.2619 30.3645C24.0069 30.64 23.8975 30.9862 23.958 31.3268C24.4706 34.2747 24.7246 37.2482 24.7182 40.2251C24.7382 44.0601 24.3086 47.888 23.4352 51.6573C23.3548 51.9953 23.4436 52.3452 23.6821 52.6301C23.9206 52.9151 24.2893 53.1117 24.707 53.1767C24.8074 53.1921 24.9094 53.1999 25.0117 53.2001C25.78 53.1995 26.4398 52.7582 26.585 52.1478C27.4969 48.2168 27.9459 44.2247 27.9257 40.2251C27.9295 37.1247 27.6615 34.028 27.1238 30.9584C26.9981 30.2524 26.1914 29.7609 25.318 29.8581Z" fill="#333333"/>
<path d="M54.3463 31.3269C54.4447 30.8618 54.2231 30.3901 53.7678 30.0952C53.3125 29.8003 52.6951 29.7286 52.1557 29.908C51.6162 30.0874 51.2397 30.4897 51.1724 30.9584C50.6374 34.0283 50.3721 37.125 50.3785 40.2252C50.3589 44.2248 50.8084 48.217 51.7209 52.1479C51.8661 52.7583 52.5259 53.1996 53.2942 53.2002C53.3964 53.2 53.4985 53.1922 53.5989 53.1768C54.0166 53.1118 54.3853 52.9152 54.6238 52.6303C54.8623 52.3453 54.9511 51.9954 54.8707 51.6575C53.9967 47.8881 53.5666 44.0602 53.5861 40.2252C53.5797 37.2483 53.8337 34.2748 54.3463 31.3269Z" fill="#333333"/>
<path d="M35.4747 35.4152C34.8454 34.9235 33.8451 34.9306 33.2265 35.4311C32.6079 35.9315 32.5992 36.7408 33.207 37.2499L34.8107 38.5474C35.44 39.0391 36.4403 39.0321 37.0589 38.5316C37.6776 38.0311 37.6863 37.2219 37.0785 36.7127L35.4747 35.4152Z" fill="#333333"/>
<path d="M34.8107 41.9028L33.2069 43.2004C32.79 43.5262 32.6228 44.0086 32.7696 44.4623C32.9164 44.9159 33.3543 45.2702 33.915 45.389C34.4757 45.5077 35.072 45.3724 35.4747 45.0351L37.0785 43.7376C37.6862 43.2284 37.6775 42.4191 37.0589 41.9186C36.4403 41.4181 35.44 41.4111 34.8107 41.9028Z" fill="#333333"/>
<path d="M43.4935 41.9028C42.8642 41.4111 41.8639 41.4181 41.2453 41.9186C40.6267 42.4191 40.618 43.2283 41.2258 43.7375L42.8295 45.0349C43.4588 45.5267 44.4591 45.5196 45.0777 45.0191C45.6964 44.5187 45.7051 43.7094 45.0973 43.2003L43.4935 41.9028Z" fill="#333333"/>
<path d="M42.8296 35.4153L41.2259 36.7128C40.8089 37.0386 40.6417 37.521 40.7885 37.9747C40.9353 38.4284 41.3732 38.7827 41.9339 38.9014C42.4946 39.0202 43.0909 38.8849 43.4936 38.5476L45.0974 37.25C45.7051 36.7409 45.6965 35.9316 45.0778 35.4311C44.4592 34.9306 43.4589 34.9235 42.8296 35.4153Z" fill="#333333"/>
<path d="M29.5296 15.5726C30.4153 15.5726 31.1333 14.9918 31.1333 14.2752C31.1333 13.5587 30.4153 12.9778 29.5296 12.9778C28.6438 12.9778 27.9258 13.5587 27.9258 14.2752C27.9258 14.9918 28.6438 15.5726 29.5296 15.5726Z" fill="#333333"/>
</svg>
