<svg width="80" height="80" viewBox="0 0 80 80" fill="none" xmlns="http://www.w3.org/2000/svg"><path d="M19.2588 7.93954C19.2588 8.42599 18.8968 8.82401 18.4541 8.82401H8.63647C8.19382 8.82401 7.83179 8.42599 7.83179 7.93954V1.56452C7.83179 1.07807 8.19382.680054 8.63647.680054H18.4539C18.8966.680054 19.2586 1.07807 19.2586 1.56452L19.2588 7.93954z" fill="#046699"/><g opacity=".1"><path opacity=".1" d="M11.1885 7.93954V1.56452C11.1885 1.07807 11.5505.680054 11.9933.680054H8.63647C8.19382.680054 7.83179 1.07807 7.83179 1.56452V7.93954C7.83179 8.42599 8.19382 8.82401 8.63647 8.82401H11.9933C11.5507 8.82401 11.1885 8.42599 11.1885 7.93954z" fill="#000"/></g><path d="M19.3165 39.684C19.3596 39.669 19.3948 39.6342 19.4127 39.5885 19.4309 39.5428 19.4299 39.4908 19.4102 39.446 19.2199 39.0097 19.0865 38.5536 19.0134 38.0907 18.6484 35.7759 19.7504 33.4713 21.693 32.4862 21.7665 32.4489 21.8019 32.3562 21.7748 32.2724 21.6835 31.9918 21.6144 31.7037 21.5691 31.4158 21.2729 29.5376 21.9413 27.7162 23.1794 26.5628V23.2427H3.91089V41.5127H16.8982C17.5043 40.673 18.3332 40.0245 19.3165 39.684z" fill="#046699"/><path opacity=".1" d="M8.74994 54.5403V19.1889C8.74994 16.4742 10.7663 14.2532 13.231 14.2532H8.39197C5.92745 14.2532 3.91089 16.4742 3.91089 19.1889V58.7293C4.80885 57.8976 5.84401 57.2013 6.99244 56.6812 7.03385 56.6625 7.06604 56.625 7.08057 56.5785 7.09525 56.532 7.09088 56.4808 7.069 56.438 7.00197 56.3079 6.96807 56.18 6.96807 56.0581 6.96822 55.5019 7.629 54.9234 8.74994 54.5403z" fill="#000"/><path d="M37.8968 28.2922C37.942 28.5786 37.9652 28.8756 37.9657 29.1752 37.9659 29.2642 38.0276 29.3382 38.1082 29.3461 40.1084 29.5393 41.7807 31.1051 42.2701 33.2427 42.2835 33.3015 42.3245 33.3483 42.3774 33.3654 42.3921 33.3702 42.4068 33.3725 42.4217 33.3725 42.4607 33.3725 42.4988 33.3563 42.5282 33.3263 43.3432 32.4909 44.3574 31.9888 45.4613 31.8745 45.5396 31.8664 45.6004 31.7955 45.6028 31.7091 45.6738 29.3013 46.5648 27.037 48.1117 25.3335 48.144 25.2979 48.1778 25.2648 48.2106 25.2298 47.8684 22.8324 46.8631 20.5286 45.1893 18.6851 44.8601 18.3228 44.3265 18.3226 43.9968 18.6851L37.1381 26.2397C37.5124 26.8397 37.7771 27.5341 37.8968 28.2922z" fill="#ef5050"/><path d="M42.2698 33.2426C42.2832 33.3015 42.3242 33.3482 42.3771 33.3654 42.3918 33.3702 42.4065 33.3724 42.4214 33.3724 42.4604 33.3724 42.4985 33.3563 42.5279 33.3262 42.926 32.9181 43.3723 32.591 43.8529 32.3484 43.7992 32.1514 43.7018 31.9656 43.5604 31.8097L42.4228 30.5564C41.9659 30.053 41.2239 30.0518 40.7656 30.5542 40.7622 30.5578 40.7595 30.5617 40.7562 30.5655 41.485 31.2484 42.0253 32.1741 42.2698 33.2426z" fill="#c0272d"/><path d="M44.7068 29.4309H43.098C42.4507 29.4309 41.9261 28.8543 41.9261 28.1431 41.9261 27.4318 42.4507 26.8552 43.098 26.8552H44.7068C45.3541 26.8552 45.8787 27.4318 45.8787 28.1431 45.8787 28.8544 45.3541 29.4309 44.7068 29.4309z" fill="#c0272d"/><path d="M42.8712 25.873C42.5717 25.873 42.2721 25.7477 42.0434 25.4968 41.5853 24.9944 41.5846 24.179 42.0417 23.6755L43.1798 22.4224C43.637 21.9192 44.379 21.9183 44.837 22.4207 45.2951 22.9231 45.2957 23.7386 44.8387 24.242L43.7006 25.4951C43.4718 25.7468 43.1715 25.873 42.8712 25.873z" fill="#c0272d"/><path d="M57.563 23.2465C57.5493 23.2072 57.5279 23.1722 57.5013 23.1428 57.4746 23.1134 57.4429 23.0901 57.4071 23.0746 54.1616 21.6541 50.4694 22.4932 48.0007 25.2122 46.3607 27.0186 45.4751 29.4197 45.4427 31.8763 45.6049 31.8588 45.7695 31.8494 45.9357 31.8494 48.366 31.8494 50.3962 33.7673 50.8468 36.3011 52.619 35.9837 54.2971 35.0668 55.6226 33.607 58.0911 30.8876 58.8529 26.8211 57.563 23.2465z" fill="#89c947"/><path d="M53.3526 27.7123C52.8945 27.2099 52.1524 27.2107 51.6954 27.7144L47.6417 32.1793C48.4069 32.4858 49.0853 32.9923 49.6251 33.6412L53.3546 29.5334C53.8118 29.03 53.8109 28.2145 53.3526 27.7123z" fill="#d5e962"/><path d="M59.246 37.9946C59.2868 38.2542 59.3077 38.5216 59.3079 38.7895 59.308 38.8784 59.3699 38.9524 59.4504 38.9603 60.0846 39.0216 60.6893 39.2376 61.2476 39.6023 61.2724 39.6186 61.2999 39.6265 61.3274 39.6265 61.3711 39.6265 61.4146 39.6063 61.4452 39.5676 61.5785 39.3999 61.6927 39.2641 61.8052 39.1403 62.7483 38.1014 63.8888 37.36 65.1324 36.9558 65.2491 36.4812 65.3124 35.9826 65.3124 35.4673 65.3124 32.3279 63.0018 29.7827 60.1513 29.7827 57.7204 29.7827 55.683 31.6346 55.1359 34.1269 57.174 34.1657 58.8965 35.7786 59.246 37.9946z" fill="#ffc502"/><path d="M23.8764 45.6077C23.3531 44.5886 23.0219 43.471 22.8953 42.3209 21.3725 42.0472 20.0797 40.9754 19.4174 39.4707 17.248 40.1435 15.6572 42.3372 15.6572 44.9417 15.6572 45.1673 15.6729 45.3888 15.6961 45.6076h8.1803V45.6077z" fill="#ffc502"/><path d="M63.2647 42.8132C63.4156 43.7701 63.2956 44.7339 62.9184 45.6078H69.5503C71.1163 43.1908 71.4949 40.0365 70.4766 37.2137 70.4637 37.1778 70.4443 37.1455 70.4198 37.1185 70.3952 37.0916 70.3659 37.0701 70.3334 37.0559 67.3526 35.7512 63.962 36.5218 61.6947 39.019 61.5291 39.2015 61.3742 39.3921 61.2255 39.5872 62.278 40.2664 63.0462 41.4281 63.2647 42.8132z" fill="#89c947"/><path d="M62.9183 45.6077H64.3676L66.679 43.062C67.1361 42.5585 67.1352 41.7431 66.6769 41.2409 66.2188 40.7384 65.4768 40.7393 65.0197 41.2429L63.3036 43.1331C63.3843 43.9835 63.2535 44.8313 62.9183 45.6077z" fill="#d5e962"/><path d="M42.4495 33.3421C41.9793 31.0292 40.1978 29.3753 38.122 29.1749 38.1215 28.8739 38.0993 28.5691 38.0509 28.2626 37.5906 25.3443 35.0614 23.3904 32.402 23.8992 31.0215 24.1633 29.8789 25.0398 29.1614 26.2286 28.1225 25.3757 26.778 24.9751 25.3975 25.239 22.7377 25.7479 20.955 28.5265 21.4156 31.4449 21.4638 31.7514 21.536 32.0467 21.628 32.33 19.6655 33.3251 18.4738 35.6725 18.8597 38.1198 19.2244 40.4333 20.8899 42.1388 22.8895 42.4936 22.6958 41.0183 22.8513 39.4956 23.3702 38.0572 23.3752 38.0431 23.3827 38.0307 23.3925 38.0197 23.402 38.0093 23.4136 38.001 23.4263 37.9954 24.3572 37.5879 25.3356 37.3812 26.3341 37.3812 28.4342 37.3812 30.4097 38.2828 31.8964 39.9202 32.0039 40.0389 32.107 40.1613 32.2075 40.2856 32.1243 39.6936 32.0812 39.0909 32.0812 38.4801 32.0812 38.0628 32.3892 37.7234 32.7678 37.7234H40.9496C40.9426 37.6039 40.9374 37.4837 40.9374 37.3621 40.9374 35.7923 41.5152 34.371 42.4495 33.3421z" fill="#368c0e"/><path d="M25.3367 33.8451C25.3298 33.8451 25.3231 33.8449 25.3163 33.8449 24.6692 33.8329 24.1535 33.2467 24.1645 32.5354 24.1989 30.3058 25.8629 28.5161 27.8863 28.5161 27.9062 28.5161 27.9259 28.5163 27.9459 28.5166 28.9652 28.534 29.9445 29.0184 30.6321 29.8458 31.0685 30.3711 31.0349 31.1857 30.5571 31.6652 30.0793 32.145 29.3381 32.1081 28.9015 31.583 28.644 31.2729 28.2915 31.0986 27.9092 31.0921 27.1474 31.0785 26.5206 31.7461 26.5078 32.5792 26.4971 33.2827 25.9745 33.8449 25.3367 33.8451z" fill="#89c947"/><path d="M31.806 36.0609C31.6707 36.0609 31.5331 36.035 31.3989 35.9802 30.792 35.7328 30.4824 34.9919 30.7074 34.325 31.3612 32.3883 33.3279 31.3944 35.0923 32.1096 35.9698 32.4657 36.6829 33.2125 37.0487 34.1586 37.3018 34.8131 37.0243 35.5693 36.4286 35.8475 35.8333 36.1258 35.145 35.8207 34.8917 35.166 34.7756 34.866 34.5586 34.6387 34.2807 34.5258 33.7265 34.3013 33.11 34.6131 32.905 35.2206 32.7298 35.7398 32.282 36.0609 31.806 36.0609z" fill="#89c947"/><path d="M50.9303 37.7095H50.8875C50.8872 37.7215 50.8872 37.7337 50.8867 37.7458H52.4564C52.9222 37.7458 53.2995 38.1615 53.2995 38.6742 53.2995 41.2618 52.5395 43.6544 51.2594 45.6077H63.0868C63.4404 44.7526 63.5752 43.7782 63.4185 42.7838 63.0701 40.5736 61.408 38.9769 59.4641 38.7892 59.4638 38.5174 59.4434 38.242 59.3999 37.9654 58.9841 35.3293 56.6998 33.5647 54.2979 34.0242 53.0511 34.263 52.0187 35.0544 51.3709 36.1284 51.1608 35.956 50.9361 35.806 50.7009 35.6769 50.8562 36.2085 50.9411 36.7746 50.9411 37.3623 50.9409 37.4757 50.9375 37.5904 50.9303 37.7095z" fill="#368c0e"/><path d="M51.0847 37.7235C51.0919 37.604 51.097 37.4838 51.097 37.3622 51.097 34.2226 48.7863 31.6775 45.9358 31.6775 43.0855 31.6775 40.7748 34.2227 40.7748 37.3622 40.7748 37.4838 40.7799 37.604 40.787 37.7235H51.0847z" fill="#f7931e"/><path d="M32.0071 39.7993C29.7397 37.3023 26.3489 36.5317 23.3683 37.8361 23.3357 37.8506 23.3065 37.872 23.2818 37.8988 23.2574 37.9258 23.2379 37.9579 23.2249 37.9941 22.313 40.522 22.5218 43.3155 23.6993 45.6078H34.3367C33.2592 44.0305 32.5288 42.1507 32.2724 40.106 32.1864 40.0019 32.0981 39.8996 32.0071 39.7993z" fill="#89c947"/><path d="M28.6254 45.6078H31.9362L28.6817 42.0232C28.2245 41.52 27.4828 41.5186 27.0245 42.0212 26.5662 42.5234 26.5653 43.3389 27.0225 43.8423L28.6254 45.6078z" fill="#d5e962"/><path d="M51.3384 45.6078C52.6961 43.6201 53.5056 41.1535 53.5056 38.4802 53.5056 37.9675 53.1284 37.5518 52.6625 37.5518H32.7679C32.3021 37.5518 31.925 37.9675 31.925 38.4802 31.925 41.1535 32.7346 43.6201 34.0924 45.6078H51.3384z" fill="#ef5050"/><path d="M43.9296 45.6078V44.717C43.9296 44.0058 43.405 43.4292 42.7577 43.4292 42.1103 43.4292 41.5858 44.0058 41.5858 44.717V45.6078H43.9296z" fill="#c0272d"/><path d="M46.1778 45.6076H48.0002C48.3772 45.1023 48.3516 44.3554 47.9227 43.8829L46.785 42.6298C46.328 42.1263 45.586 42.1251 45.1278 42.6275 44.6695 43.1299 44.6688 43.9452 45.1258 44.4486L46.1778 45.6076z" fill="#c0272d"/><path d="M39.1529 45.6075 40.2047 44.4489C40.6619 43.9454 40.6611 43.13 40.203 42.6277 39.7449 42.1253 39.0029 42.1262 38.5457 42.6296L37.4079 43.8827C36.979 44.3551 36.9532 45.102 37.3301 45.6074L39.1529 45.6075z" fill="#c0272d"/><path d="M37.3512 42.1346H35.7421C35.0947 42.1346 34.5702 41.5581 34.5702 40.8469 34.5702 40.1357 35.0947 39.5591 35.7421 39.5591H37.3512C37.9985 39.5591 38.5231 40.1357 38.5231 40.8469 38.5231 41.5581 37.9984 42.1346 37.3512 42.1346z" fill="#c0272d"/><path d="M49.6882 42.1346H48.079C47.4318 42.1346 46.9071 41.5581 46.9071 40.8469 46.9071 40.1357 47.4318 39.5591 48.079 39.5591H49.6882C50.3356 39.5591 50.8601 40.1357 50.8601 40.8469 50.8601 41.5581 50.3354 42.1346 49.6882 42.1346z" fill="#c0272d"/><path d="M14.528 54.4872C14.5421 54.4915 14.5563 54.4937 14.5704 54.4937 14.6041 54.4937 14.6372 54.4817 14.6647 54.4589 14.7038 54.4264 14.7266 54.3758 14.7266 54.322V52.1425C14.7266 51.5271 15.1822 51.0264 15.7422 51.0264 16.3022 51.0264 16.7579 51.5271 16.7579 52.1425V54.322C16.7579 54.3758 16.7807 54.4264 16.8197 54.4589 16.8472 54.4817 16.8803 54.4937 16.9141 54.4937 16.9283 54.4937 16.9425 54.4917 16.9564 54.4872 17.7785 54.2327 18.7483 54.0981 19.7607 54.0981 22.6052 54.0981 24.5161 55.1114 24.5161 56.0578 24.5161 56.1801 24.4822 56.308 24.4152 56.4381 24.393 56.4809 24.3888 56.5322 24.4034 56.5788 24.4181 56.6253 24.4502 56.6627 24.4916 56.6815 28.1336 58.3312 30.7144 61.8308 31.227 65.8142 31.2337 65.8659 31.2614 65.9114 31.3022 65.938 31.3266 65.9538 31.354 65.9619 31.3817 65.9619 31.4005 65.9619 31.4192 65.9581 31.4372 65.9508L56.1051 55.6524C56.5824 55.4532 57.0833 55.3523 57.594 55.3523 58.3094 55.3523 59.0171 55.555 59.6407 55.9385 60.725 56.6054 61.4764 57.7557 61.7022 59.0941L61.9171 60.369C61.9264 60.4242 61.9594 60.4709 62.006 60.494 62.0266 60.5043 62.0486 60.5095 62.0707 60.5095 62.0983 60.5095 62.1258 60.5016 62.1502 60.4856L70.4439 55.1053C71.1566 52.3146 71.5178 49.421 71.5178 46.4489 71.5178 45.9574 71.1559 45.5591 70.7097 45.5591H14.28C13.8338 45.5591 13.4719 45.9574 13.4719 46.4489 13.4719 49.1878 13.78 51.8599 14.3855 54.4465 14.4329 54.4602 14.4816 54.4728 14.528 54.4872z" fill="#e6e9ed"/><path opacity=".1" d="M14.528 54.4872C14.5421 54.4915 14.5563 54.4937 14.5703 54.4937 14.6041 54.4937 14.6372 54.4817 14.6647 54.4589 14.7038 54.4264 14.7266 54.3758 14.7266 54.322V52.1425C14.7266 51.5271 15.1822 51.0264 15.7422 51.0264 16.3022 51.0264 16.7578 51.5271 16.7578 52.1425V54.322C16.7578 54.3758 16.7806 54.4264 16.8197 54.4589 16.8472 54.4817 16.8803 54.4937 16.9141 54.4937 16.9283 54.4937 16.9425 54.4916 16.9564 54.4872 17.66 54.2693 18.4723 54.1402 19.3265 54.1074 18.7728 51.6265 18.4923 49.0681 18.4923 46.4489 18.4923 45.9574 18.854 45.5591 19.3004 45.5591H14.28C13.8338 45.5591 13.4719 45.9574 13.4719 46.4489 13.4719 49.1878 13.78 51.8599 14.3855 54.4465 14.4328 54.4602 14.4816 54.4728 14.528 54.4872z" fill="#000"/><path d="M15.7421 55.1001C16.063 54.9021 16.4605 54.7295 16.9142 54.5889V52.1424C16.9142 51.4312 16.3897 50.8546 15.7424 50.8546 15.0951 50.8546 14.5706 51.4312 14.5706 52.1424V54.5889C15.0243 54.7294 15.4213 54.9021 15.7421 55.1001z" fill="#89c947"/><path d="M27.7139 78.9978 23.4814 78.9996H23.4798C21.465 78.9995 19.7373 77.426 19.372 75.2578L19.3303 75.0112C18.9648 72.8427 20.0664 70.6979 21.9496 69.9115L31.4048 65.9643C30.9179 61.6847 28.1735 58.1005 24.4051 56.456 24.0395 57.1313 22.7804 57.7193 21.1411 57.9306 21.0786 57.9387 21.0264 57.9873 21.009 58.0539 20.9917 58.1205 21.0123 58.192 21.0615 58.2352 21.9112 58.9822 22.445 59.7696 22.4895 60.3419 22.5057 60.5493 22.4593 60.7176 22.3475 60.8564 22.1482 61.1036 21.7564 61.2343 21.2145 61.2343c0 0 0 0-.00019999999999953388.0C20.1593 61.2343 18.7328 60.7496 17.3981 59.9377 16.8103 59.5797 16.2873 59.1887 15.8431 58.7751 15.8139 58.748 15.7779 58.7344 15.7422 58.7344 15.7062 58.7344 15.6703 58.748 15.6412 58.7751 15.1967 59.1891 14.6737 59.5802 14.0865 59.9375 12.7519 60.7496 11.3251 61.2343 10.2701 61.2343 9.72811 61.2343 9.33639 61.1036 9.13717 60.8564 9.0253 60.7176 8.97873 60.5495 8.99498 60.3421 9.03967 59.7698 9.57342 58.9823 10.4228 58.2352 10.4719 58.192 10.4926 58.1205 10.4753 58.0539 10.4581 57.9873 10.4059 57.9387 10.3433 57.9306 8.70342 57.7193 7.44421 57.131 7.07921 56.4553 2.91515 58.272.0 62.4565.0 67.3304.0 73.8701 5.24702 79.1714 11.7194 79.1714H27.9687C28.1442 79.1714 28.0084 79.1028 27.7139 78.9978z" fill="#ef5050"/><path opacity=".1" d="M5.0703 67.3305C5.0703 63.4461 6.92154 59.9987 9.78091 57.8394 8.41935 57.5782 7.40107 57.0516 7.07904 56.4556 2.91515 58.2721.0 62.4566.0 67.3305.0 73.8701 5.24702 79.1714 11.7193 79.1714H16.7898C10.3175 79.1714 5.0703 73.8701 5.0703 67.3305z" fill="#000"/><path d="M24.6726 56.0579C24.6726 54.8807 22.4736 53.9265 19.7609 53.9265 18.0994 53.9265 16.6309 54.2849 15.742 54.8331 14.8538 54.285 13.3855 53.9265 11.7236 53.9265 9.01113 53.9265 6.81177 54.8807 6.81177 56.0579 6.81177 57.024 8.29395 57.8394 10.3247 58.1013 9.08238 59.1938 8.51348 60.3421 9.01972 60.9702 9.6905 61.8024 11.993 61.4072 14.1617 60.0878 14.7706 59.7172 15.3042 59.3137 15.7417 58.9061 16.1797 59.3139 16.7136 59.7172 17.322 60.0878 19.4909 61.4072 21.7932 61.8021 22.4639 60.9702 22.9703 60.3421 22.4015 59.1938 21.1587 58.1013 23.1909 57.8394 24.6726 57.024 24.6726 56.0579z" fill="#368c0e"/><path d="M79.9819 63.6834 79.6672 61.8179C79.559 61.174 78.9939 60.7485 78.4054 60.867L66.26 63.3188 74.0148 57.6221C74.3825 57.3522 74.5526 56.8753 74.477 56.4225 74.4556 56.2969 74.4153 56.1736 74.3553 56.0563L73.4776 54.3481C73.3351 54.07 73.0953 53.8663 72.8136 53.7841 72.532 53.7015 72.232 53.7465 71.9811 53.9094L61.8929 60.4537 63.8014 71.7761 75.3723 74.0612C75.6606 74.1182 75.9581 74.0447 76.1959 73.8579 76.4339 73.6709 76.5931 73.386 76.6359 73.0686L76.8975 71.1401C76.9156 71.0074 76.9131 70.8762 76.8919 70.7512 76.8156 70.2977 76.5004 69.9194 76.0692 69.8107L66.9673 67.5166 79.1129 65.0646C79.7017 64.9458 80.0903 64.3276 79.9819 63.6834z" fill="#89c947"/><path d="M19.2183 75.289C19.5975 77.5391 21.3907 79.172 23.4813 79.1711L60.0385 79.1557C61.3249 79.1552 62.5451 78.529 63.3679 77.4465 64.191 76.3642 64.532 74.9377 64.2985 73.5525L61.8563 59.0626C61.6228 57.6778 60.8392 56.4783 59.7174 55.7883 58.5957 55.0984 57.2521 54.9901 56.05 55.4916L21.8941 69.7507C19.9407 70.5665 18.7975 72.792 19.1766 75.0423L19.2183 75.289z" fill="#f7931e"/><g opacity=".1"><path opacity=".1" d="M19.2183 75.289C19.2764 75.6344 19.3716 75.9631 19.4924 76.2758 19.9963 75.292 20.8057 74.4962 21.8274 74.0695L57.4974 59.1781C58.7529 58.6543 60.1562 58.7676 61.3274 59.4879 61.5735 59.6394 61.8031 59.8155 62.0159 60.0108L61.8563 59.0628C61.6227 57.6779 60.8391 56.4784 59.7174 55.7885 58.5957 55.0986 57.2521 54.9902 56.0499 55.4918L21.8941 69.7509C19.9407 70.5667 18.7975 72.7922 19.1766 75.0424L19.2183 75.289z" fill="#000"/></g><path d="M57.9433 73.1319C57.8217 72.4332 57.2064 71.9753 56.5722 72.109 55.9366 72.2426 55.5199 72.9173 55.6414 73.6158L56.6061 79.1571 58.9922 79.1561 57.9433 73.1319z" fill="#ffc502"/><path d="M51.591 74.6591C51.471 73.96 50.8585 73.5006 50.2222 73.6321 49.5863 73.7638 49.1679 74.4372 49.2879 75.1361L49.9782 79.16 52.363 79.159 51.591 74.6591z" fill="#ffc502"/><path d="M45.3809 64.9596C45.5148 65.5437 45.9922 65.9332 46.5165 65.9332 46.6112 65.9332 46.7076 65.9205 46.8036 65.8938 47.4312 65.7202 47.8118 65.0204 47.6538 64.3304L46.5384 59.4625 44.3325 60.3836 45.3809 64.9596z" fill="#ffc502"/><path d="M39.2831 73.5367C39.1683 72.8368 38.5594 72.3715 37.9219 72.4979 37.285 72.6241 36.8617 73.2939 36.9766 73.9938L37.8251 79.1651 40.2065 79.1641 39.2831 73.5367z" fill="#ffc502"/><path d="M27.4612 71.1298C27.577 71.7368 28.064 72.1534 28.6068 72.1534 28.6867 72.1534 28.7676 72.1445 28.8489 72.1256 29.4823 71.9796 29.8878 71.2967 29.755 70.6008L29.0242 66.7747 26.8064 67.7005 27.4612 71.1298z" fill="#ffc502"/></svg>