<svg fill="none" viewBox="0 0 1440 880" xmlns="http://www.w3.org/2000/svg"
      ><path d="m1581.4 476.46c10.04 35.858-1.76 73.872-30.91 99.607l-154.94 136.8c-36.84 32.522-93.05 38.349-136.95 14.192l-725.41-399.23c-21.69-11.937-38.355-30.177-47.321-51.793l-157.36-379.38c-30.929-74.569 38.643-151.58 124.77-138.11l897.33 140.3c43.95 6.8724 79.36 36.685 90.4 76.105l140.39 501.5z" fill="url(#b)"
        /><path d="m-378.82-165.42c-22.068-72.948 46.65-142.01 128.36-129l1400.6 223.06c72.79 11.594 114 82.773 83.47 144.17l-223.98 450.31c-10.032 20.174-26.921 36.863-48.164 47.593l-585.2 295.61c-34.217 17.285-75.798 17.197-109.93-.232l-352.82-180.19c-26.35-13.457-45.701-35.976-53.735-62.535l-238.62-788.8z" fill="url(#a)"
        /><defs><linearGradient id="b" x1="1314" x2="845.52" y1="970.35" y2="-112.73" gradientUnits="userSpaceOnUse"
          ><stop stop-color="#2ff2da" offset="0" /><stop stop-color="#2f8dfb" stop-opacity=".92" offset=".60778" /></linearGradient><linearGradient id="a" x1="407.82" x2="533.9" y1="-404.72" y2="873.15" gradientUnits="userSpaceOnUse"
          ><stop stop-color="#2ff294" offset="0" /><stop stop-color="#2f81fb" stop-opacity=".92" offset="1" /></linearGradient></defs></svg>