<svg width="45" height="52" viewBox="0 0 45 52" fill="none" xmlns="http://www.w3.org/2000/svg">
<g clip-path="url(#clip0)">
<path d="M2.81245 4.44177C-0.723803 8.60717 -5.36591e-05 13.032 -5.36591e-05 26.4744C-5.36591e-05 37.6374 -1.71755 48.828 7.27119 51.4625C10.0781 52.2811 34.9481 52.2811 37.7512 51.4583C41.4937 50.3632 44.5387 46.9208 44.9549 40.9182C45.0131 40.0805 45.0131 12.8831 44.9531 12.0284C44.5106 5.63462 41.0399 1.94976 36.4668 1.20343C35.4187 1.0312 35.2087 0.98017 29.8312 0.969539C10.7568 0.98017 6.57557 0.0169614 2.81245 4.44177Z" fill="url(#paint0_linear)"/>
<path d="M22.4963 7.64343C15.6881 7.64343 9.22314 6.95664 6.75377 14.1435C5.73377 17.1118 5.88189 20.9668 5.88189 26.4866C5.88189 31.3303 5.74502 35.8827 6.75377 38.8276C9.21752 46.0187 15.735 45.3298 22.4925 45.3298C29.0119 45.3298 35.7338 46.0995 38.2332 38.8276C39.255 35.8295 39.105 32.032 39.105 26.4866C39.105 19.1254 39.4632 14.3731 36.315 10.8052C33.1275 7.19053 28.8169 7.64343 22.4888 7.64343H22.4963ZM21.0075 11.0391C35.2088 11.0136 37.0163 9.22326 36.0188 34.0945C35.6644 42.8909 29.7581 41.9256 22.4981 41.9256C9.26064 41.9256 8.88002 41.4961 8.88002 26.4781C8.88002 11.2858 9.93002 11.0476 21.0075 11.0349V11.0391ZM31.365 14.1669C30.2644 14.1669 29.3719 15.179 29.3719 16.4271C29.3719 17.6753 30.2644 18.6874 31.365 18.6874C32.4657 18.6874 33.3582 17.6753 33.3582 16.4271C33.3582 15.179 32.4657 14.1669 31.365 14.1669ZM22.4963 16.8099C17.7844 16.8099 13.965 21.1432 13.965 26.4866C13.965 31.83 17.7844 36.1612 22.4963 36.1612C27.2081 36.1612 31.0257 31.83 31.0257 26.4866C31.0257 21.1432 27.2081 16.8099 22.4963 16.8099ZM22.4963 20.2055C29.8181 20.2055 29.8275 32.7677 22.4963 32.7677C15.1763 32.7677 15.165 20.2055 22.4963 20.2055Z" fill="white"/>
</g>
<defs>
<linearGradient id="paint0_linear" x1="2.89873" y1="48.7411" x2="49.1242" y2="13.4616" gradientUnits="userSpaceOnUse">
<stop stop-color="#FFDD55"/>
<stop offset="0.5" stop-color="#FF543E"/>
<stop offset="1" stop-color="#C837AB"/>
</linearGradient>
<clipPath id="clip0">
<rect y="0.96875" width="45" height="51.0309" fill="white"/>
</clipPath>
</defs>
</svg>
