<svg height="512pt" viewBox="-36 0 511 512" width="512pt" xmlns="http://www.w3.org/2000/svg"><path d="m351.039062 504.441406H247.667969c-43.996094.0-79.664063-35.667968-79.664063-79.664062v-99.347656h248.289063c8.144531.0 14.746093 6.601562 14.746093 14.75v84.261718c0 44.183594-35.816406 80-80 80zm0 0" fill="#ffe3dc"/><path d="m416.175781 325.429688h-91.277343c8.207031.0 14.863281 6.65625 14.863281 14.863281v83.511719c0 44.535156-36.101563 80.636718-80.632813 80.636718h91.277344c44.535156.0 80.632812-36.101562 80.632812-80.636718v-83.511719c0-8.207031-6.652343-14.863281-14.863281-14.863281zm0 0" fill="#ffc5b2"/><path d="m271.09375 424.144531v-401.71875c0-8.210937-6.652344-14.867187-14.863281-14.867187h-233.308594c-8.207031.0-14.863281 6.65625-14.863281 14.867187v401.71875c0 44.347657 35.949218 80.296875 80.292968 80.296875h263.035157c-44.34375.0-80.292969-35.949218-80.292969-80.296875zm0 0" fill="#ffe3dc"/><path d="m227.871094 22.425781v418.140625c0 26.058594 12.421875 49.207032 31.65625 63.875h91.863281c-44.347656.0-80.296875-35.949218-80.296875-80.292968v-401.722657c0-8.210937-6.652344-14.867187-14.863281-14.867187h-43.222657c8.207032.0 14.863282 6.65625 14.863282 14.867187zm0 0" fill="#ffc5b2"/><g fill="#ffae92"><path d="m237.371094 175.257812H35.628906c-4.175781.0-7.558594-3.386718-7.558594-7.5625.0-4.171874 3.382813-7.558593 7.558594-7.558593h201.742188c4.175781.0 7.558594 3.386719 7.558594 7.558593.0 4.175782-3.382813 7.5625-7.558594 7.5625zm0 0"/><path d="m237.371094 349.046875H35.628906c-4.175781.0-7.558594-3.386719-7.558594-7.5625.0-4.171875 3.382813-7.558594 7.558594-7.558594h201.742188c4.175781.0 7.558594 3.386719 7.558594 7.558594.0 4.175781-3.382813 7.5625-7.558594 7.5625zm0 0"/><path d="m92.410156 299.898438H48.175781c-7.472656.0-13.546875-6.078126-13.546875-13.546876v-20.050781c0-8.746093 4.320313-16.746093 11.34375-21.554687v-11.199219c0-4.175781 3.382813-7.558594 7.558594-7.558594h33.519531c4.175781.0 7.558594 3.382813 7.558594 7.558594v11.199219c7.023437 4.808594 11.34375 12.808594 11.34375 21.554687v20.050781c.003906 7.46875-6.074219 13.546876-13.542969 13.546876zM49.746094 284.78125h41.09375v-18.480469c0-4.4375-2.644532-8.417969-6.730469-10.148437-2.796875-1.179688-4.617187-3.921875-4.617187-6.960938v-8.085937H61.089844v8.085937c0 3.039063-1.816406 5.78125-4.617188 6.960938-4.085937 1.730468-6.726562 5.710937-6.726562 10.148437zm0 0"/><path d="m81.488281 59.65625C79.125 48.878906 69.507812 40.785156 58.027344 40.785156c-4.171875.0-7.558594 3.386719-7.558594 7.558594.0 4.175781 3.386719 7.558594 7.558594 7.558594 3.109375.0 5.84375 1.601562 7.4375 4.019531-19.382813 2.9375-31.457032 15.546875-31.457032 33.777344.0 21.707031 17.023438 37.460937 40.484376 37.460937 23.457031.0 40.484374-15.753906 40.484374-37.460937.0-18.859375-12.921874-31.695313-33.488281-34.042969zm-6.996093 56.390625c-12.21875.0-25.363282-6.992187-25.363282-22.34375.0-12.878906 9.671875-17.269531 17.804688-18.683594v2.058594c0 4.175781 3.382812 7.5625 7.558594 7.5625 4.175781.0 7.558593-3.386719 7.558593-7.5625v-2.058594c8.132813 1.414063 17.808594 5.804688 17.808594 18.683594.0 15.351563-13.148437 22.34375-25.367187 22.34375zm0 0"/><path d="m114.363281 437.222656c-4.304687-9.703125-12.019531-20.390625-21.722656-30.09375S72.25 389.710938 62.546875 385.40625c-16.105469-7.148438-24.195313-2.523438-27.585937.867188-3.390626 3.390624-8.015626 11.484374-.867188 27.585937 4.304688 9.703125 12.019531 20.390625 21.722656 30.09375s20.390625 17.417969 30.09375 21.726563c6.210938 2.757812 11.234375 3.761718 15.25 3.761718 6.398438.0 10.253906-2.546875 12.335938-4.628906 3.390625-3.394531 8.015625-11.488281.867187-27.589844zm-11.523437 16.867188c-.542969.355468-4.148438.933594-11.894532-2.734375-7.773437-3.679688-16.453124-10.105469-24.4375-18.09375-7.988281-7.988281-14.414062-16.667969-18.09375-24.441407-3.667968-7.746093-3.089843-11.347656-2.796874-11.828124.183593-.121094.710937-.265626 1.625-.265626 1.808593.0 5.125.5625 10.269531 3 2.957031 1.398438 6.042969 3.199219 9.171875 5.328126l-4.847656 4.84375c-2.953126 2.953124-2.953126 7.738281.0 10.691406 1.476562 1.476562 3.410156 2.214844 5.347656 2.214844 1.933594.0 3.867187-.738282 5.34375-2.214844l6.027344-6.027344c1.144531 1.054688 2.277343 2.136719 3.394531 3.257812 1.003906 1.003907 1.984375 2.019532 2.9375 3.042969l-6.042969 6.042969c-2.953125 2.949219-2.953125 7.738281.0 10.6875 1.472656 1.476562 3.410156 2.214844 5.34375 2.214844s3.871094-.738282 5.34375-2.214844l4.910156-4.90625c2.246094 3.265625 4.144532 6.492188 5.605469 9.574219 3.664063 7.746093 3.085937 11.347656 2.792969 11.828125zm0 0"/><path d="m204.523438 232.421875H142.875c-4.175781.0-7.558594-3.386719-7.558594-7.5625.0-4.171875 3.382813-7.558594 7.558594-7.558594h61.648438c4.171874.0 7.558593 3.386719 7.558593 7.558594.0 4.175781-3.386719 7.5625-7.558593 7.5625zm0 0"/><path d="m203.84375 260h-60.285156c-4.175782.0-7.5625-3.382812-7.5625-7.558594.0-4.175781 3.386718-7.558594 7.5625-7.558594h60.285156c4.175781.0 7.558594 3.386719 7.558594 7.558594.0 4.175782-3.382813 7.558594-7.558594 7.558594zm0 0"/><path d="m203.84375 405.507812h-60.285156c-4.175782.0-7.5625-3.382812-7.5625-7.558593s3.386718-7.558594 7.5625-7.558594h60.285156c4.175781.0 7.558594 3.386719 7.558594 7.558594.0 4.175781-3.382813 7.558593-7.558594 7.558593zm0 0"/><path d="m203.84375 436.914062h-60.285156c-4.175782.0-7.5625-3.386718-7.5625-7.558593.0-4.175781 3.386718-7.558594 7.5625-7.558594h60.285156c4.175781.0 7.558594 3.382813 7.558594 7.558594s-3.382813 7.558593-7.558594 7.558593zm0 0"/><path d="m203.84375 291.40625h-60.285156c-4.175782.0-7.5625-3.386719-7.5625-7.558594.0-4.175781 3.386718-7.558594 7.5625-7.558594h60.285156c4.175781.0 7.558594 3.382813 7.558594 7.558594.0 4.171875-3.382813 7.558594-7.558594 7.558594zm0 0"/><path d="m204.523438 59.105469H142.875c-4.175781.0-7.558594-3.382813-7.558594-7.558594s3.382813-7.558594 7.558594-7.558594h61.648438c4.171874.0 7.558593 3.382813 7.558593 7.558594s-3.386719 7.558594-7.558593 7.558594zm0 0"/><path d="m204.523438 91.21875H142.875c-4.175781.0-7.558594-3.382812-7.558594-7.558594.0-4.175781 3.382813-7.558594 7.558594-7.558594h61.648438c4.171874.0 7.558593 3.382813 7.558593 7.558594.0 4.175782-3.386719 7.558594-7.558593 7.558594zm0 0"/><path d="m204.523438 123.332031H142.875c-4.175781.0-7.558594-3.386719-7.558594-7.558593.0-4.175782 3.382813-7.558594 7.558594-7.558594h61.648438c4.171874.0 7.558593 3.382812 7.558593 7.558594.0 4.171874-3.386719 7.558593-7.558593 7.558593zm0 0"/></g><path d="m416.175781 317.871094h-85.816406c-4.175781.0-7.558594 3.382812-7.558594 7.558594.0 4.175781 3.382813 7.558593 7.558594 7.558593h85.816406c4.027344.0 7.304688 3.277344 7.304688 7.304688v83.511719c0 40.128906-32.515625 72.796874-72.582031 73.0625-39.878907-.265626-72.246094-32.78125-72.246094-72.722657v-91.15625h16.871094c4.175781.0 7.5625-3.382812 7.5625-7.558593.0-4.175782-3.386719-7.558594-7.5625-7.558594h-16.871094v-295.445313c0-12.367187-10.058594-22.425781-22.421875-22.425781h-233.308594c-12.363281.0-22.421875 10.058594-22.421875 22.425781v401.71875c0 48.445313 39.410156 87.855469 87.855469 87.855469h19.046875c4.171875.0 7.558594-3.386719 7.558594-7.558594.0-4.175781-3.386719-7.558594-7.558594-7.558594h-19.046875c-40.109375.0-72.738281-32.628906-72.738281-72.734374v-401.722657c0-4.03125 3.277343-7.308593 7.308593-7.308593h233.304688c4.027343.0 7.304687 3.277343 7.304687 7.308593v401.71875c0 30.21875 15.332032 56.921875 38.628906 72.738281h-159.453124c-4.175782.0-7.558594 3.382813-7.558594 7.558594.0 4.171875 3.382812 7.558594 7.558594 7.558594h208.679687c.109375.0.21875-.011719.328125-.019531 48.027344-.703125 86.882812-39.984375 86.882812-88.175781v-83.511719c0-12.363281-10.0625-22.421875-22.425781-22.421875zm0 0"/><path d="m28.070312 167.695312c0 4.175782 3.382813 7.558594 7.558594 7.558594h201.742188c4.175781.0 7.558594-3.382812 7.558594-7.558594.0-4.175781-3.382813-7.558593-7.558594-7.558593H35.628906c-4.175781.0-7.558594 3.382812-7.558594 7.558593zm0 0"/><path d="m35.628906 349.046875h201.742188c4.175781.0 7.558594-3.386719 7.558594-7.5625.0-4.171875-3.382813-7.558594-7.558594-7.558594H35.628906c-4.175781.0-7.558594 3.386719-7.558594 7.558594.0 4.175781 3.382813 7.5625 7.558594 7.5625zm0 0"/><path d="m87.050781 225.988281H53.53125c-4.175781.0-7.558594 3.382813-7.558594 7.558594v11.199219c-7.023437 4.808594-11.34375 12.808594-11.34375 21.554687v20.050781c0 7.46875 6.074219 13.546876 13.546875 13.546876h44.234375c7.46875.0 13.546875-6.078126 13.546875-13.546876v-20.050781c0-8.746093-4.324219-16.746093-11.34375-21.554687v-11.199219c0-4.175781-3.386719-7.558594-7.5625-7.558594zm3.789063 58.792969h-41.09375v-18.480469c0-4.4375 2.640625-8.417969 6.726562-10.148437 2.800782-1.179688 4.617188-3.921875 4.617188-6.960938v-8.085937h18.402344v8.085937c0 3.039063 1.820312 5.78125 4.617187 6.960938 4.085937 1.730468 6.730469 5.710937 6.730469 10.148437zm0 0"/><path d="m34.007812 93.703125c0 21.707031 17.023438 37.460937 40.484376 37.460937 23.457031.0 40.484374-15.753906 40.484374-37.460937.0-18.863281-12.921874-31.699219-33.488281-34.046875-2.367187-10.777344-11.984375-18.871094-23.460937-18.871094-4.175782.0-7.558594 3.386719-7.558594 7.5625.0 4.171875 3.382812 7.558594 7.558594 7.558594 3.105468.0 5.84375 1.601562 7.4375 4.019531-19.382813 2.9375-31.457032 15.542969-31.457032 33.777344zm32.925782-18.683594v2.058594c0 4.175781 3.382812 7.5625 7.558594 7.5625 4.171874.0 7.558593-3.386719 7.558593-7.5625v-2.058594c8.132813 1.414063 17.804688 5.804688 17.804688 18.683594.0 15.351563-13.148438 22.34375-25.363281 22.34375-12.21875.0-25.367188-6.992187-25.367188-22.34375.0-12.878906 9.675781-17.269531 17.808594-18.683594zm0 0"/><path d="m55.816406 443.953125c9.703125 9.699219 20.390625 17.414063 30.09375 21.722656 6.210938 2.757813 11.234375 3.765625 15.25 3.765625 6.398438.0 10.253906-2.546875 12.335938-4.632812 3.390625-3.390625 8.015625-11.484375.867187-27.585938-4.304687-9.703125-12.019531-20.390625-21.722656-30.09375s-20.390625-17.417968-30.09375-21.726562c-16.105469-7.144532-24.195313-2.523438-27.585937.867187-3.394532 3.394531-8.015626 11.488281-.867188 27.589844 4.304688 9.703125 12.019531 20.390625 21.722656 30.09375zm-10.199218-46.960937c4.179687-2.734376 19.03125 6.675781 21.066406 8.0625l-4.847656 4.84375c-2.953126 2.953124-2.953126 7.738281.0 10.691406 3.5625 2.949218 7.128906 2.949218 10.691406.0l6.027344-6.027344c1.140624 1.054688 2.273437 2.136719 3.394531 3.257812 1.003906 1.003907 1.984375 2.019532 2.933593 3.042969l-6.042968 6.042969c-2.953125 2.949219-2.953125 7.738281.0 10.6875 3.5625 2.953125 7.128906 2.953125 10.691406.0l4.90625-4.90625c1.386719 2.015625 11.214844 16.808594 8.402344 21.402344-.542969.355468-4.148438.933594-11.894532-2.734375-7.773437-3.679688-16.453124-10.105469-24.4375-18.09375-7.988281-7.988281-14.414062-16.667969-18.09375-24.441407-3.667968-7.746093-3.089843-11.347656-2.796874-11.828124zm0 0"/><path d="m204.523438 217.300781H142.875c-4.175781.0-7.558594 3.386719-7.558594 7.558594.0 4.175781 3.382813 7.558594 7.558594 7.558594h61.648438c4.171874.0 7.558593-3.382813 7.558593-7.558594.0-4.171875-3.386719-7.558594-7.558593-7.558594zm0 0"/><path d="m203.84375 244.882812h-60.285156c-4.175782.0-7.5625 3.382813-7.5625 7.558594.0 4.175782 3.386718 7.558594 7.5625 7.558594h60.285156c4.175781.0 7.558594-3.386719 7.558594-7.558594.0-4.175781-3.382813-7.558594-7.558594-7.558594zm0 0"/><path d="m203.84375 390.390625h-60.285156c-4.175782.0-7.5625 3.382813-7.5625 7.558594s3.386718 7.558593 7.5625 7.558593h60.285156c4.175781.0 7.558594-3.386718 7.558594-7.558593.0-4.175781-3.382813-7.558594-7.558594-7.558594zm0 0"/><path d="m203.84375 421.796875h-60.285156c-4.175782.0-7.5625 3.382813-7.5625 7.558594.0 4.171875 3.386718 7.558593 7.5625 7.558593h60.285156c4.175781.0 7.558594-3.386718 7.558594-7.558593.0-4.175781-3.382813-7.558594-7.558594-7.558594zm0 0"/><path d="m203.84375 276.285156h-60.285156c-4.175782.0-7.5625 3.386719-7.5625 7.5625.0 4.171875 3.386718 7.558594 7.5625 7.558594h60.285156c4.175781.0 7.558594-3.386719 7.558594-7.558594.0-4.175781-3.382813-7.5625-7.558594-7.5625zm0 0"/><path d="m142.875 59.105469h61.648438c4.171874.0 7.558593-3.382813 7.558593-7.558594s-3.386719-7.558594-7.558593-7.558594H142.875c-4.175781.0-7.558594 3.382813-7.558594 7.558594s3.382813 7.558594 7.558594 7.558594zm0 0"/><path d="m142.875 91.21875h61.648438c4.171874.0 7.558593-3.382812 7.558593-7.558594.0-4.175781-3.386719-7.558594-7.558593-7.558594H142.875c-4.175781.0-7.558594 3.382813-7.558594 7.558594.0 4.175782 3.382813 7.558594 7.558594 7.558594zm0 0"/><path d="m142.875 123.332031h61.648438c4.171874.0 7.558593-3.386719 7.558593-7.558593.0-4.175782-3.386719-7.558594-7.558593-7.558594H142.875c-4.175781.0-7.558594 3.382812-7.558594 7.558594.0 4.171874 3.382813 7.558593 7.558594 7.558593zm0 0"/></svg>