<svg width="65" height="87" viewBox="0 0 65 87" fill="none" xmlns="http://www.w3.org/2000/svg"><path d="M48.3691.830933H21.4795C19.5143.830933 17.9062 2.01621 17.9062 3.46476v5.3109C17.9062 10.2242 19.5143 11.4095 21.4795 11.4095H48.3692C50.3344 11.4095 51.9425 10.2242 51.9425 8.77566V3.46476C51.9422 2.01621 50.3344.830933 48.3691.830933z" fill="#5aaae7"/><path d="M18.144 7.97599C18.144 7.97599 15.9936 7.90996 14.7531 9.46426L.423218 27.1113 27.9852 33.6348 49.624 30.4423 51.9424 7.97683 18.144 7.97599z" fill="#96c8ef"/><path d="M17.1675 16.2334C16.8749 16.2334 16.5807 16.1399 16.3342 15.9473 15.7562 15.4954 15.6609 14.669 16.1214 14.1018L17.4944 12.4107C17.9554 11.8435 18.7974 11.7503 19.3754 12.2019 19.9534 12.6539 20.0487 13.4802 19.5882 14.0475L18.2152 15.7385C17.951 16.0639 17.561 16.2334 17.1675 16.2334z" fill="#5aaae7"/><path d="M11.0425 23.7764C10.7499 23.7764 10.4558 23.6829 10.2092 23.4903 9.63122 23.0383 9.53592 22.212 9.99639 21.6448L13.7452 17.0278C14.2062 16.4607 15.0479 16.3675 15.6262 16.819 16.2042 17.271 16.2995 18.0973 15.8391 18.6645L12.09 23.2815C11.8258 23.6069 11.436 23.7764 11.0425 23.7764z" fill="#5aaae7"/><path d="M1.96317 26.3738H45.2203C46.3001 26.3738 47.1835 27.2405 47.1835 28.2999V84.705C47.1835 85.7645 46.3001 86.6312 45.2203 86.6312H1.96317C.883373 86.6312.0 85.7645.0 84.705V28.2999C0 27.2407.883373 26.3738 1.96317 26.3738z" fill="#d1e7f8"/><path d="M64.9979 62.9222H0V67.1316H64.9979V62.9222z" fill="#96c8ef"/><path d="M64.5669 26.4171 53.2868 8.80612C52.9495 8.27976 52.4593 7.97694 51.9433 7.97644 51.943 7.97644 51.9426 7.97644 51.9423 7.97644 51.4266 7.97644 50.9364 8.27825 50.5991 8.80394L39.319 26.3737C39.0396 26.8089 38.8859 27.3651 38.8859 27.9406V84.2367C38.8859 85.5591 39.6813 86.6311 40.6622 86.6311H63.2222C64.2033 86.6311 64.9985 85.5589 64.9985 84.2367V27.9818C64.9987 27.4072 64.8455 26.8518 64.5669 26.4171z" fill="#5aaae7"/><path d="M51.9423 7.97644C51.4266 7.97644 50.9364 8.27825 50.5991 8.80394L39.319 26.3737C39.0396 26.8089 38.8859 27.3651 38.8859 27.9406V84.2367C38.8859 85.5591 39.6813 86.6311 40.6622 86.6311H51.9423V7.97644z" fill="#3d9ae2"/><path d="M39.319 26.3738C39.0396 26.809 38.8859 27.3652 38.8859 27.9406V84.2368C38.8859 85.5592 39.6813 86.6312 40.6622 86.6312H63.2222C64.2033 86.6312 64.9985 85.559 64.9985 84.2368V27.9819C64.9985 27.4074 64.8453 26.8519 64.5668 26.4172L39.319 26.3738z" fill="#96c8ef"/><path d="M65 62.9222H38.8867V67.1316H65V62.9222z" fill="#5aaae7"/><path d="M64.9979 42.2515H0V62.9223H64.9979V42.2515z" fill="#006df0"/><path d="M65 42.2515H38.8867V62.9223H65V42.2515z" fill="#00479b"/><path d="M12.5703 58.4056C11.8309 58.4056 11.2318 57.8177 11.2318 57.0923V52.1147L10.2592 53.7321C10.0208 54.1288 9.58815 54.3738 9.11897 54.3782 9.1147 54.3782 9.11043 54.3782 9.10633 54.3782 8.64175 54.3782 8.21032 54.1417 7.96641 53.7534L6.82957 51.9417V57.0923C6.82957 57.8177 6.23041 58.4056 5.49102 58.4056 4.75163 58.4056 4.15247 57.8177 4.15247 57.0923V47.3038C4.15247 46.7163 4.55026 46.2003 5.12636 46.0403 5.70196 45.8798 6.31701 46.115 6.63076 46.6153L9.08156 50.5208 11.4172 46.6364C11.7238 46.1264 12.3404 45.8803 12.9227 46.0366 13.5051 46.1926 13.9087 46.7114 13.9087 47.3035V57.0919C13.9089 57.8175 13.3097 58.4056 12.5703 58.4056z" fill="#fff"/><path d="M16.7278 58.4055C15.9884 58.4055 15.3893 57.8177 15.3893 57.0922V47.3038C15.3893 46.5783 15.9884 45.9905 16.7278 45.9905 17.4672 45.9905 18.0664 46.5783 18.0664 47.3038V57.0922C18.0664 57.8175 17.4671 58.4055 16.7278 58.4055z" fill="#fff"/><path d="M25.0036 58.4055H20.7797C20.0403 58.4055 19.4412 57.8177 19.4412 57.0922V47.3038C19.4412 46.5783 20.0403 45.9905 20.7797 45.9905 21.5191 45.9905 22.1183 46.5783 22.1183 47.3038V55.7789H25.0036C25.743 55.7789 26.3422 56.3668 26.3422 57.0922 26.3422 57.8177 25.743 58.4055 25.0036 58.4055z" fill="#fff"/><path d="M35.4756 56.3918 32.2855 51.4282 34.8724 48.1001C35.3207 47.5233 35.2075 46.6993 34.6196 46.2594 34.0317 45.8196 33.1917 45.9307 32.7436 46.5075L29.8521 50.2277V47.3038C29.8521 46.5783 29.253 45.9905 28.5136 45.9905 27.7742 45.9905 27.175 46.5783 27.175 47.3038V57.0922C27.175 57.8177 27.7742 58.4055 28.5136 58.4055 29.253 58.4055 29.8521 57.8177 29.8521 57.0922V54.5589L30.5533 53.6569 33.2112 57.7925C33.4657 58.1887 34.4179 58.6388 35.0572 58.2029 35.6644 57.7892 35.87 57.0053 35.4756 56.3918z" fill="#fff"/></svg>