<svg width="253" height="51" viewBox="0 0 253 51" fill="none" xmlns="http://www.w3.org/2000/svg">
<path d="M9.352 34.18C8.464 34.18 7.828 33.988 7.444 33.604C7.06 33.196 6.868 32.44 6.868 31.336C6.868 30.592 6.94 29.644 7.084 28.492C7.252 27.316 7.516 25.708 7.876 23.668C8.5 19.9 8.992 16.636 9.352 13.876C9.568 12.148 9.676 10.708 9.676 9.556C9.676 8.476 9.28 7.936 8.488 7.936C7.864 7.936 7.108 8.26 6.22 8.908C5.356 9.532 4.396 10.54 3.34 11.932C3.004 12.388 2.632 12.616 2.224 12.616C1.888 12.616 1.588 12.46 1.324 12.148C1.084 11.812 0.964 11.44 0.964 11.032C0.964 10.648 1.036 10.264 1.18 9.88C1.348 9.472 1.612 9.016 1.972 8.512C3.124 6.904 4.408 5.668 5.824 4.804C7.24 3.916 8.656 3.472 10.072 3.472C11.392 3.472 12.4 3.892 13.096 4.732C13.816 5.572 14.176 6.796 14.176 8.404C14.176 9.052 14.116 9.82 13.996 10.708C13.876 11.572 13.768 12.28 13.672 12.832C13.576 13.384 13.504 13.768 13.456 13.984C14.824 10.072 16.36 7.348 18.064 5.812C19.768 4.252 21.64 3.472 23.68 3.472C25.24 3.472 26.464 4.024 27.352 5.128C28.264 6.232 28.72 7.792 28.72 9.808C28.72 10.6 28.612 11.584 28.396 12.76C29.596 9.448 31 7.072 32.608 5.632C34.216 4.192 36.064 3.472 38.152 3.472C39.832 3.472 41.116 4.012 42.004 5.092C42.916 6.172 43.372 7.684 43.372 9.628C43.372 10.684 43.216 11.968 42.904 13.48L40.708 23.776C40.468 24.976 40.348 26.008 40.348 26.872C40.348 27.88 40.576 28.636 41.032 29.14C41.512 29.644 42.172 29.896 43.012 29.896C43.804 29.896 44.572 29.632 45.316 29.104C46.084 28.576 46.984 27.7 48.016 26.476C48.304 26.14 48.628 25.972 48.988 25.972C49.3 25.972 49.54 26.116 49.708 26.404C49.9 26.692 49.996 27.088 49.996 27.592C49.996 28.528 49.768 29.272 49.312 29.824C48.064 31.336 46.828 32.44 45.604 33.136C44.38 33.832 43.096 34.18 41.752 34.18C39.712 34.18 38.116 33.58 36.964 32.38C35.812 31.156 35.236 29.524 35.236 27.484C35.236 26.068 35.524 24.016 36.1 21.328L37.54 14.74C37.588 14.524 37.672 14.14 37.792 13.588C37.912 13.036 38.008 12.52 38.08 12.04C38.152 11.536 38.188 11.044 38.188 10.564C38.188 9.724 38.02 9.1 37.684 8.692C37.372 8.26 36.916 8.044 36.316 8.044C35.188 8.044 34 8.776 32.752 10.24C31.528 11.68 30.352 14.08 29.224 17.44C28.12 20.8 27.22 25.168 26.524 30.544C26.356 31.984 26.056 32.956 25.624 33.46C25.216 33.94 24.544 34.18 23.608 34.18C22.792 34.18 22.192 33.988 21.808 33.604C21.448 33.22 21.268 32.5 21.268 31.444C21.268 30.46 21.4 29.176 21.664 27.592C21.928 25.984 22.264 24.1 22.672 21.94C23.776 16.132 24.328 12.388 24.328 10.708C24.328 9.796 24.148 9.124 23.788 8.692C23.452 8.26 22.936 8.044 22.24 8.044C21.064 8.044 19.852 8.716 18.604 10.06C17.356 11.38 16.132 13.744 14.932 17.152C13.756 20.536 12.772 25.12 11.98 30.904C11.812 32.128 11.56 32.98 11.224 33.46C10.912 33.94 10.288 34.18 9.352 34.18ZM66.7512 25.972C67.0632 25.972 67.3032 26.116 67.4712 26.404C67.6632 26.692 67.7592 27.088 67.7592 27.592C67.7592 28.552 67.5312 29.296 67.0752 29.824C66.1872 30.904 64.9272 31.9 63.2952 32.812C61.6872 33.724 59.9592 34.18 58.1112 34.18C55.5912 34.18 53.6352 33.496 52.2432 32.128C50.8512 30.76 50.1552 28.888 50.1552 26.512C50.1552 24.856 50.5032 23.32 51.1992 21.904C51.8952 20.464 52.8552 19.324 54.0792 18.484C55.3272 17.644 56.7312 17.224 58.2912 17.224C59.6832 17.224 60.7992 17.644 61.6392 18.484C62.4792 19.3 62.8992 20.416 62.8992 21.832C62.8992 23.488 62.2992 24.916 61.0992 26.116C59.9232 27.292 57.9192 28.228 55.0872 28.924C55.6872 30.028 56.8272 30.58 58.5072 30.58C59.5872 30.58 60.8112 30.208 62.1792 29.464C63.5712 28.696 64.7712 27.7 65.7792 26.476C66.0672 26.14 66.3912 25.972 66.7512 25.972ZM57.6792 20.752C56.7912 20.752 56.0352 21.268 55.4112 22.3C54.8112 23.332 54.5112 24.58 54.5112 26.044V26.116C55.9272 25.78 57.0432 25.276 57.8592 24.604C58.6752 23.932 59.0832 23.152 59.0832 22.264C59.0832 21.808 58.9512 21.448 58.6872 21.184C58.4472 20.896 58.1112 20.752 57.6792 20.752ZM72.6802 34.18C71.1922 34.18 70.0042 33.64 69.1162 32.56C68.2282 31.48 67.7842 30.064 67.7842 28.312C67.7842 26.392 68.2282 24.58 69.1162 22.876C70.0042 21.148 71.1802 19.768 72.6442 18.736C74.1322 17.68 75.7042 17.152 77.3602 17.152C77.8882 17.152 78.2362 17.26 78.4042 17.476C78.5962 17.668 78.7522 18.028 78.8722 18.556C79.3762 18.46 79.9042 18.412 80.4562 18.412C81.6322 18.412 82.2202 18.832 82.2202 19.672C82.2202 20.176 82.0402 21.376 81.6802 23.272C81.1282 26.032 80.8522 27.952 80.8522 29.032C80.8522 29.392 80.9362 29.68 81.1042 29.896C81.2962 30.112 81.5362 30.22 81.8242 30.22C82.2802 30.22 82.8322 29.932 83.4802 29.356C84.1282 28.756 85.0042 27.796 86.1082 26.476C86.3962 26.14 86.7202 25.972 87.0802 25.972C87.3922 25.972 87.6322 26.116 87.8002 26.404C87.9922 26.692 88.0882 27.088 88.0882 27.592C88.0882 28.552 87.8602 29.296 87.4042 29.824C86.4202 31.048 85.3762 32.08 84.2722 32.92C83.1682 33.76 82.1002 34.18 81.0682 34.18C80.2762 34.18 79.5442 33.916 78.8722 33.388C78.2242 32.836 77.7322 32.092 77.3962 31.156C76.1482 33.172 74.5762 34.18 72.6802 34.18ZM73.9762 30.544C74.5042 30.544 75.0082 30.232 75.4882 29.608C75.9682 28.984 76.3162 28.156 76.5322 27.124L77.8642 20.5C76.8562 20.524 75.9202 20.908 75.0562 21.652C74.2162 22.372 73.5442 23.332 73.0402 24.532C72.5362 25.732 72.2842 27.004 72.2842 28.348C72.2842 29.092 72.4282 29.644 72.7162 30.004C73.0282 30.364 73.4482 30.544 73.9762 30.544ZM99.1664 28.924C99.4304 28.684 99.6944 28.564 99.9584 28.564C100.246 28.564 100.474 28.732 100.642 29.068C100.834 29.38 100.93 29.764 100.93 30.22C100.93 31.228 100.57 32.032 99.8504 32.632C98.6024 33.664 97.1864 34.18 95.6024 34.18C93.3224 34.18 91.6544 33.232 90.5984 31.336C89.5424 29.416 89.0144 26.92 89.0144 23.848C89.0144 20.92 89.3864 17.584 90.1304 13.84C90.8984 10.096 92.0144 6.88 93.4784 4.192C94.9664 1.504 96.7304 0.159998 98.7704 0.159998C99.9224 0.159998 100.822 0.699998 101.47 1.78C102.142 2.836 102.478 4.36 102.478 6.352C102.478 9.208 101.686 12.52 100.102 16.288C98.5424 20.056 96.4064 23.776 93.6944 27.448C93.8624 28.432 94.1624 29.14 94.5944 29.572C95.0264 30.004 95.6144 30.22 96.3584 30.22C96.7664 30.22 97.2224 30.1 97.7264 29.86C98.2544 29.62 98.7344 29.308 99.1664 28.924ZM97.9784 3.724C97.4264 3.724 96.8024 4.72 96.1064 6.712C95.4104 8.704 94.7984 11.176 94.2704 14.128C93.7424 17.08 93.4544 19.912 93.4064 22.624C95.1104 19.816 96.4664 17.008 97.4744 14.2C98.4824 11.368 98.9864 8.788 98.9864 6.46C98.9864 4.636 98.6504 3.724 97.9784 3.724ZM137.968 25.972C138.28 25.972 138.52 26.116 138.688 26.404C138.88 26.692 138.976 27.088 138.976 27.592C138.976 28.552 138.748 29.296 138.292 29.824C137.26 31.096 136.144 32.14 134.944 32.956C133.768 33.772 132.424 34.18 130.912 34.18C129.64 34.18 128.608 33.724 127.816 32.812C126.448 33.7 125.02 34.156 123.532 34.18C123.22 38.812 122.512 42.676 121.408 45.772C120.304 48.892 118.684 50.452 116.548 50.452C115.252 50.452 114.292 49.984 113.668 49.048C113.044 48.112 112.732 46.816 112.732 45.16C112.732 42.808 113.272 40.06 114.352 36.916C115.432 33.796 117.1 30.352 119.356 26.584C119.356 23.08 119.332 20.644 119.284 19.276C119.26 18.58 119.536 18.028 120.112 17.62C120.688 17.212 121.408 17.008 122.272 17.008C122.776 17.008 123.136 17.116 123.352 17.332C123.592 17.524 123.724 17.92 123.748 18.52C123.748 19.12 123.76 19.564 123.784 19.852C124.552 18.892 125.308 18.208 126.052 17.8C126.796 17.368 127.588 17.152 128.428 17.152C129.772 17.152 130.864 17.692 131.704 18.772C132.568 19.852 133 21.268 133 23.02C133 24.292 132.796 25.528 132.388 26.728C131.98 27.928 131.416 29.02 130.696 30.004C131.2 30.148 131.62 30.22 131.956 30.22C132.748 30.22 133.504 29.932 134.224 29.356C134.944 28.78 135.868 27.82 136.996 26.476C137.284 26.14 137.608 25.972 137.968 25.972ZM123.712 30.724C124.576 30.532 125.368 30.064 126.088 29.32C126.832 28.552 127.42 27.616 127.852 26.512C128.284 25.384 128.5 24.208 128.5 22.984C128.5 22.264 128.356 21.724 128.068 21.364C127.78 20.98 127.396 20.788 126.916 20.788C126.052 20.788 125.008 21.7 123.784 23.524C123.76 24.58 123.748 26.128 123.748 28.168C123.748 29.272 123.736 30.124 123.712 30.724ZM116.836 46.924C117.484 46.924 118.024 45.508 118.456 42.676C118.888 39.868 119.164 36.364 119.284 32.164C118.252 34.564 117.436 36.856 116.836 39.04C116.236 41.224 115.936 43.06 115.936 44.548C115.936 45.316 116.032 45.904 116.224 46.312C116.392 46.72 116.596 46.924 116.836 46.924ZM153.32 25.972C153.632 25.972 153.872 26.116 154.04 26.404C154.232 26.692 154.328 27.088 154.328 27.592C154.328 28.552 154.1 29.296 153.644 29.824C152.612 31.096 151.484 32.14 150.26 32.956C149.06 33.772 147.692 34.18 146.156 34.18C144.044 34.18 142.472 33.22 141.44 31.3C140.432 29.38 139.928 26.896 139.928 23.848C139.928 20.92 140.3 17.584 141.044 13.84C141.812 10.096 142.928 6.88 144.392 4.192C145.88 1.504 147.644 0.159998 149.684 0.159998C150.836 0.159998 151.736 0.699998 152.384 1.78C153.056 2.836 153.392 4.36 153.392 6.352C153.392 9.208 152.6 12.52 151.016 16.288C149.432 20.056 147.284 23.788 144.572 27.484C144.74 28.468 145.016 29.176 145.4 29.608C145.784 30.016 146.288 30.22 146.912 30.22C147.896 30.22 148.76 29.944 149.504 29.392C150.248 28.816 151.196 27.844 152.348 26.476C152.636 26.14 152.96 25.972 153.32 25.972ZM148.892 3.724C148.34 3.724 147.716 4.72 147.02 6.712C146.324 8.704 145.712 11.176 145.184 14.128C144.656 17.08 144.368 19.912 144.32 22.624C146.024 19.816 147.38 17.008 148.388 14.2C149.396 11.368 149.9 8.788 149.9 6.46C149.9 4.636 149.564 3.724 148.892 3.724ZM159.094 34.18C157.606 34.18 156.418 33.64 155.53 32.56C154.642 31.48 154.198 30.064 154.198 28.312C154.198 26.392 154.642 24.58 155.53 22.876C156.418 21.148 157.594 19.768 159.058 18.736C160.546 17.68 162.118 17.152 163.774 17.152C164.302 17.152 164.65 17.26 164.818 17.476C165.01 17.668 165.166 18.028 165.286 18.556C165.79 18.46 166.318 18.412 166.87 18.412C168.046 18.412 168.634 18.832 168.634 19.672C168.634 20.176 168.454 21.376 168.094 23.272C167.542 26.032 167.266 27.952 167.266 29.032C167.266 29.392 167.35 29.68 167.518 29.896C167.71 30.112 167.95 30.22 168.238 30.22C168.694 30.22 169.246 29.932 169.894 29.356C170.542 28.756 171.418 27.796 172.522 26.476C172.81 26.14 173.134 25.972 173.494 25.972C173.806 25.972 174.046 26.116 174.214 26.404C174.406 26.692 174.502 27.088 174.502 27.592C174.502 28.552 174.274 29.296 173.818 29.824C172.834 31.048 171.79 32.08 170.686 32.92C169.582 33.76 168.514 34.18 167.482 34.18C166.69 34.18 165.958 33.916 165.286 33.388C164.638 32.836 164.146 32.092 163.81 31.156C162.562 33.172 160.99 34.18 159.094 34.18ZM160.39 30.544C160.918 30.544 161.422 30.232 161.902 29.608C162.382 28.984 162.73 28.156 162.946 27.124L164.278 20.5C163.27 20.524 162.334 20.908 161.47 21.652C160.63 22.372 159.958 23.332 159.454 24.532C158.95 25.732 158.698 27.004 158.698 28.348C158.698 29.092 158.842 29.644 159.13 30.004C159.442 30.364 159.862 30.544 160.39 30.544ZM177.732 34.18C176.82 34.18 176.172 33.7 175.788 32.74C175.428 31.78 175.248 30.244 175.248 28.132C175.248 25.012 175.692 22.048 176.58 19.24C176.796 18.544 177.144 18.04 177.624 17.728C178.128 17.392 178.824 17.224 179.712 17.224C180.192 17.224 180.528 17.284 180.72 17.404C180.912 17.524 181.008 17.752 181.008 18.088C181.008 18.472 180.828 19.336 180.468 20.68C180.228 21.64 180.036 22.48 179.892 23.2C179.748 23.92 179.628 24.808 179.532 25.864C180.324 23.8 181.212 22.12 182.196 20.824C183.18 19.528 184.14 18.604 185.076 18.052C186.036 17.5 186.912 17.224 187.704 17.224C189.264 17.224 190.044 18.004 190.044 19.564C190.044 20.5 189.78 22.192 189.252 24.64C188.796 26.728 188.568 28.108 188.568 28.78C188.568 29.74 188.916 30.22 189.612 30.22C190.092 30.22 190.656 29.932 191.304 29.356C191.976 28.756 192.864 27.796 193.968 26.476C194.256 26.14 194.58 25.972 194.94 25.972C195.252 25.972 195.492 26.116 195.66 26.404C195.852 26.692 195.948 27.088 195.948 27.592C195.948 28.552 195.72 29.296 195.264 29.824C194.232 31.096 193.116 32.14 191.916 32.956C190.74 33.772 189.396 34.18 187.884 34.18C186.66 34.18 185.736 33.832 185.112 33.136C184.488 32.416 184.176 31.384 184.176 30.04C184.176 29.368 184.344 28.168 184.68 26.44C184.992 24.928 185.148 23.884 185.148 23.308C185.148 22.924 185.016 22.732 184.752 22.732C184.44 22.732 183.996 23.14 183.42 23.956C182.868 24.748 182.292 25.804 181.692 27.124C181.116 28.444 180.648 29.836 180.288 31.3C180.024 32.428 179.712 33.196 179.352 33.604C179.016 33.988 178.476 34.18 177.732 34.18ZM199.192 34.18C198.28 34.18 197.632 33.7 197.248 32.74C196.888 31.78 196.708 30.244 196.708 28.132C196.708 25.012 197.152 22.048 198.04 19.24C198.256 18.544 198.604 18.04 199.084 17.728C199.588 17.392 200.284 17.224 201.172 17.224C201.652 17.224 201.988 17.284 202.18 17.404C202.372 17.524 202.468 17.752 202.468 18.088C202.468 18.472 202.288 19.336 201.928 20.68C201.688 21.64 201.496 22.48 201.352 23.2C201.208 23.92 201.088 24.808 200.992 25.864C201.784 23.8 202.672 22.12 203.656 20.824C204.64 19.528 205.6 18.604 206.536 18.052C207.496 17.5 208.372 17.224 209.164 17.224C210.724 17.224 211.504 18.004 211.504 19.564C211.504 20.5 211.24 22.192 210.712 24.64C210.256 26.728 210.028 28.108 210.028 28.78C210.028 29.74 210.376 30.22 211.072 30.22C211.552 30.22 212.116 29.932 212.764 29.356C213.436 28.756 214.324 27.796 215.428 26.476C215.716 26.14 216.04 25.972 216.4 25.972C216.712 25.972 216.952 26.116 217.12 26.404C217.312 26.692 217.408 27.088 217.408 27.592C217.408 28.552 217.18 29.296 216.724 29.824C215.692 31.096 214.576 32.14 213.376 32.956C212.2 33.772 210.856 34.18 209.344 34.18C208.12 34.18 207.196 33.832 206.572 33.136C205.948 32.416 205.636 31.384 205.636 30.04C205.636 29.368 205.804 28.168 206.14 26.44C206.452 24.928 206.608 23.884 206.608 23.308C206.608 22.924 206.476 22.732 206.212 22.732C205.9 22.732 205.456 23.14 204.88 23.956C204.328 24.748 203.752 25.804 203.152 27.124C202.576 28.444 202.108 29.836 201.748 31.3C201.484 32.428 201.172 33.196 200.812 33.604C200.476 33.988 199.936 34.18 199.192 34.18ZM234.151 25.972C234.463 25.972 234.703 26.116 234.871 26.404C235.063 26.692 235.159 27.088 235.159 27.592C235.159 28.552 234.931 29.296 234.475 29.824C233.587 30.904 232.327 31.9 230.695 32.812C229.087 33.724 227.359 34.18 225.511 34.18C222.991 34.18 221.035 33.496 219.643 32.128C218.251 30.76 217.555 28.888 217.555 26.512C217.555 24.856 217.903 23.32 218.599 21.904C219.295 20.464 220.255 19.324 221.479 18.484C222.727 17.644 224.131 17.224 225.691 17.224C227.083 17.224 228.199 17.644 229.039 18.484C229.879 19.3 230.299 20.416 230.299 21.832C230.299 23.488 229.699 24.916 228.499 26.116C227.323 27.292 225.319 28.228 222.487 28.924C223.087 30.028 224.227 30.58 225.907 30.58C226.987 30.58 228.211 30.208 229.579 29.464C230.971 28.696 232.171 27.7 233.179 26.476C233.467 26.14 233.791 25.972 234.151 25.972ZM225.079 20.752C224.191 20.752 223.435 21.268 222.811 22.3C222.211 23.332 221.911 24.58 221.911 26.044V26.116C223.327 25.78 224.443 25.276 225.259 24.604C226.075 23.932 226.483 23.152 226.483 22.264C226.483 21.808 226.351 21.448 226.087 21.184C225.847 20.896 225.511 20.752 225.079 20.752ZM250.372 22.156C250.9 22.156 251.344 22.348 251.704 22.732C252.088 23.092 252.28 23.548 252.28 24.1C252.28 24.412 252.208 24.748 252.064 25.108C251.68 25.996 251.14 26.74 250.444 27.34C249.748 27.94 248.98 28.24 248.14 28.24C247.468 28.24 246.892 28 246.412 27.52C245.956 27.04 245.728 26.392 245.728 25.576C245.728 25.12 245.752 24.628 245.8 24.1C245.848 23.716 245.872 23.452 245.872 23.308C245.872 23.116 245.824 22.972 245.728 22.876C245.656 22.78 245.56 22.732 245.44 22.732C245.104 22.732 244.648 23.14 244.072 23.956C243.496 24.748 242.92 25.804 242.344 27.124C241.768 28.444 241.3 29.836 240.94 31.3C240.676 32.452 240.376 33.22 240.04 33.604C239.704 33.988 239.152 34.18 238.384 34.18C237.472 34.18 236.824 33.7 236.44 32.74C236.08 31.78 235.9 30.244 235.9 28.132C235.9 25.012 236.344 22.048 237.232 19.24C237.448 18.544 237.796 18.04 238.276 17.728C238.78 17.392 239.476 17.224 240.364 17.224C240.844 17.224 241.18 17.284 241.372 17.404C241.564 17.524 241.66 17.752 241.66 18.088C241.66 18.472 241.48 19.336 241.12 20.68C240.88 21.64 240.688 22.48 240.544 23.2C240.4 23.92 240.28 24.808 240.184 25.864C240.976 23.8 241.864 22.12 242.848 20.824C243.832 19.528 244.792 18.604 245.728 18.052C246.664 17.5 247.516 17.224 248.284 17.224C248.98 17.224 249.508 17.428 249.868 17.836C250.252 18.22 250.444 18.796 250.444 19.564C250.444 20.02 250.312 20.884 250.048 22.156H250.372Z" fill="white"/>
</svg>
