<svg width="90" height="84" viewBox="0 0 90 84" fill="none" xmlns="http://www.w3.org/2000/svg">
<path d="M69.5538 47.7378C67.1608 47.7416 64.7892 48.1558 62.5589 48.9595C59.732 47.97 56.765 47.3656 53.7513 47.1651C51.138 46.3876 49.2552 44.2694 48.9318 41.744C49.5099 41.114 50.1403 40.5268 50.8173 39.9872C55.2105 36.5124 55.0848 33.1764 54.9227 30.2253C57.5959 29.1188 59.6009 26.97 60.3974 24.3594C60.7263 22.5224 61.2014 18.1619 58.5118 17.3373C57.7428 17.1051 56.9168 17.0904 56.1388 17.2959C56.1388 16.0323 56.1134 14.5911 56.0221 12.9132C55.503 3.53626 44.9025 0.679974 39.3119 0.478271H36.912C31.3797 0.678702 20.7813 3.53626 20.2622 12.9158C20.1688 14.5924 20.1359 16.0323 20.1448 17.2959C19.3758 17.0917 18.5587 17.1063 17.7992 17.3373C15.0856 18.16 15.5491 22.5205 15.8849 24.4262C16.7047 27.0101 18.7063 29.1315 21.3602 30.2297C21.1981 33.1789 21.0739 36.5124 25.4656 39.9929C26.1427 40.5318 26.773 41.1191 27.3512 41.7497C27.0264 44.2751 25.1429 46.3927 22.5302 47.1709C16.8853 47.4865 9.37203 49.6727 5.04753 53.9441C1.69945 57.2484 0 62.0924 0 68.3388C0 83.7013 36.5852 83.8776 38.1432 83.8776C45.4347 83.8012 52.6953 82.9791 59.7918 81.4253C66.8855 85.236 75.7947 84.5247 82.0803 79.6463C88.3665 74.7672 90.686 66.7647 87.8824 59.6242C85.0789 52.4838 77.753 47.7333 69.5538 47.7378ZM38.1507 66.5318C36.9601 65.62 35.8663 64.7298 34.8706 63.8606L37.6035 58.8066C37.9633 58.8753 38.3341 58.8753 38.6939 58.8066L41.4253 63.8702C40.4386 64.7234 39.3448 65.6142 38.1507 66.5318ZM39.6435 54.6879C39.6435 55.4553 38.972 56.0776 38.1432 56.0776C37.3151 56.0776 36.6435 55.4553 36.6435 54.6879V51.908H39.6435V54.6879ZM43.6604 61.8061L41.3773 57.5748C42.1882 56.8017 42.6421 55.7658 42.6435 54.6879V52.3859C45.6228 51.9449 48.5692 51.3277 51.4634 50.5387C50.7328 52.7963 48.7924 56.8061 43.6604 61.8061ZM57.4139 19.948C57.7174 21.2288 57.7304 22.5542 57.453 23.8395C57.0108 25.1051 56.1333 26.2014 54.9557 26.9618C55.0333 26.3987 55.1473 25.8495 55.2826 25.2273C55.6527 23.6327 55.8992 22.0153 56.0207 20.3883C56.4176 20.0994 56.9092 19.9442 57.4139 19.948ZM18.834 23.9108C18.5449 22.6019 18.5587 21.2511 18.8759 19.948C19.3792 19.934 19.8715 20.0861 20.265 20.3775C20.3865 22.0064 20.6323 23.6251 21.0018 25.2215C21.1363 25.8425 21.2503 26.3948 21.33 26.9573C20.1709 26.2122 19.2968 25.1452 18.834 23.9108ZM24.3629 30.259C24.378 29.9918 24.3807 29.7137 24.3931 29.4439C24.3979 29.3752 24.3979 29.3058 24.3931 29.2371C24.4034 28.9381 24.4247 28.6479 24.4247 28.3451C24.4055 27.1075 24.2413 25.8756 23.9358 24.6711C23.5458 22.999 23.3013 21.3007 23.2066 19.5923V19.57C23.0995 17.4003 23.1152 15.2267 23.2546 13.0589C23.7689 3.8754 36.4918 3.2792 36.9718 3.25821H39.2535C39.7932 3.28048 52.5195 3.87668 53.0249 13.0602C53.1642 15.2318 53.18 17.4092 53.0729 19.5821C52.9782 21.2925 52.7337 22.9933 52.3423 24.6667C52.0375 25.8718 51.8734 27.103 51.8534 28.3406C51.8534 28.6435 51.8747 28.9343 51.8864 29.2327C51.8823 29.302 51.885 29.3714 51.894 29.4401C51.9063 29.7099 51.9077 29.988 51.9228 30.2546C52.0814 33.1484 52.1954 35.2405 48.87 37.8734C47.8764 38.6701 46.9666 39.5532 46.1536 40.5102L46.1172 40.5528C45.6242 41.1242 45.1813 41.6746 44.7961 42.1684C43.2374 44.1504 42.5267 44.9579 40.4819 44.9579H35.8038C33.7589 44.9579 33.0483 44.1504 31.4958 42.1614C31.1112 41.6689 30.669 41.1204 30.1767 40.5503C30.1637 40.5325 30.1499 40.5166 30.1348 40.5C29.3212 39.5481 28.4107 38.6707 27.4171 37.8785C24.0903 35.2449 24.2056 33.1528 24.3629 30.259ZM29.5876 44.4558C30.8709 46.5072 33.2453 47.7601 35.8038 47.7378H40.4833C43.0417 47.7601 45.4154 46.5059 46.6981 44.4546C47.2776 45.8894 48.2396 47.1645 49.4941 48.1616H49.4728C48.9091 48.3009 48.2939 48.4549 47.6477 48.6038L47.5337 48.6305C46.9034 48.7692 46.2408 48.9181 45.5624 49.0473L45.3948 49.0823C44.7123 49.221 44.0147 49.3444 43.3157 49.457L43.1763 49.4812C42.7437 49.5506 42.318 49.5989 41.8888 49.6549C41.4789 49.3088 40.944 49.1166 40.3892 49.1166H35.8889C35.3341 49.1173 34.7999 49.3088 34.3893 49.6549C31.8233 49.2967 29.2827 48.7947 26.7826 48.1507C28.0392 47.1581 29.0039 45.8875 29.5876 44.4558ZM33.6374 52.3859V54.6879C33.6381 55.7658 34.092 56.801 34.9022 57.5748L32.6219 61.8016C27.4892 56.7979 25.5467 52.7918 24.8223 50.5432C27.7171 51.3303 30.6635 51.9462 33.6436 52.3859H33.6374ZM38.1432 81.0976C28.3681 81.0976 2.99996 78.8057 2.99996 68.3388C2.99996 62.8235 4.42475 58.617 7.23587 55.8428C10.6863 52.4329 16.8091 50.512 21.5792 50.0246C22.1327 52.557 24.2159 58.0972 31.881 65.0626C31.8899 65.0721 31.9023 65.0791 31.9126 65.0906C33.5976 66.6151 35.3643 68.0608 37.2059 69.4218C37.2663 69.4555 37.3288 69.4854 37.3934 69.5109C37.4634 69.551 37.5369 69.5859 37.6124 69.6152C37.7353 69.6572 37.8644 69.6833 37.9949 69.6928C38.0443 69.7056 38.0944 69.7157 38.1452 69.7234C38.1734 69.7234 38.2009 69.7119 38.229 69.7107C38.3032 69.7049 38.376 69.6928 38.4481 69.6763C38.551 69.6572 38.652 69.6286 38.7481 69.5898C38.8202 69.5592 38.8903 69.5236 38.9569 69.4829C38.9987 69.458 39.0468 69.4453 39.0873 69.4161C41.0745 67.9303 42.8371 66.4974 44.3072 65.1587C52.0636 58.15 54.1482 52.5678 54.7092 50.0201C56.09 50.1671 57.4565 50.4102 58.7968 50.7474C53.7493 53.8302 50.5358 58.9148 50.1046 64.5027C49.6727 70.0912 52.0711 75.5473 56.5934 79.2658C50.5165 80.3958 44.3408 81.0092 38.1432 81.0976ZM69.5538 81.0976C66.4927 81.0964 63.4941 80.3004 60.8973 78.8C60.8375 78.7606 60.7757 78.7256 60.7112 78.6944C55.54 75.658 52.6115 70.2159 53.1066 64.5618C53.6023 58.9072 57.44 53.974 63.0719 51.7508C63.1446 51.7298 63.2154 51.7031 63.2833 51.6713C69.4522 49.3151 76.5452 50.6342 81.2563 55.0124C85.9667 59.3914 87.3681 65.968 84.807 71.6774C82.2458 77.3862 76.2259 81.104 69.5538 81.0976Z" fill="#333333"/>
<path d="M74.751 57.875L65.0535 66.8613L64.3559 66.2136C63.2222 65.1459 61.5578 64.724 59.995 65.1077C58.4329 65.4914 57.2127 66.6227 56.7987 68.0703C56.3846 69.5184 56.8405 71.0608 57.9927 72.1113L61.8723 75.7057C63.6294 77.3339 66.4776 77.3339 68.2348 75.7057L81.1142 63.7728C82.2664 62.7223 82.7223 61.1799 82.3083 59.7317C81.8942 58.2842 80.6741 57.1529 79.1119 56.7692C77.5491 56.3855 75.8847 56.8074 74.751 57.875ZM78.9931 61.806L66.1137 73.7402C65.528 74.283 64.5791 74.283 63.9933 73.7402L60.1138 70.1445C59.6929 69.7462 59.5693 69.1526 59.8 68.6378C60.0314 68.1224 60.5725 67.7852 61.1747 67.7814C61.5722 67.7814 61.9533 67.9271 62.2348 68.1873L63.4619 69.3244C63.8842 69.7157 64.4568 69.9352 65.0535 69.9352C65.6502 69.9352 66.2229 69.7157 66.6452 69.3244L76.8721 59.8488C77.2463 59.4791 77.8087 59.3271 78.3388 59.453C78.8689 59.579 79.2829 59.9627 79.4189 60.4533C79.5555 60.9445 79.3921 61.4656 78.9931 61.813V61.806Z" fill="#333333"/>
</svg>
