<svg width="40" height="33" viewBox="0 0 40 33" fill="none" xmlns="http://www.w3.org/2000/svg">
<path d="M39.1625 13.1131C37.0381 5.51535 31.7971 0 26.7026 0C26.2934 0 25.8846 0.0356165 25.4863 0.106041C25.2605 0.145705 25.063 0.278459 24.9408 0.471113C24.8189 0.664982 24.7845 0.900538 24.8465 1.12072L25.8951 4.87181C25.9963 5.23405 26.3456 5.47892 26.7087 5.46232L26.792 5.4607C28.6814 5.4607 32.1342 8.29224 33.8944 14.5855C33.964 14.8352 34.03 15.0906 34.0936 15.3569C32.1176 14.3791 29.7604 14.1528 27.6258 14.7474C22.8102 16.0948 19.9892 21.1078 21.3353 25.9226C22.4265 29.8238 26.0153 32.5493 30.0627 32.5493C30.8872 32.5493 31.7104 32.4356 32.5098 32.2118C35.6854 31.3242 38.073 28.6877 39.233 24.7897C40.28 21.273 40.2537 17.0171 39.1625 13.1131Z" fill="black"/>
<path d="M5.70186 0.000732422C5.29348 0.000732422 4.88429 0.0355398 4.48643 0.105965C4.26099 0.14482 4.06307 0.278384 3.94124 0.471041C3.81941 0.664912 3.78501 0.90047 3.84653 1.12065L4.89562 4.87178C4.9968 5.23403 5.33962 5.4789 5.70915 5.4623L5.79171 5.46068C7.68104 5.46068 11.1343 8.29225 12.8945 14.5856C12.9645 14.8369 13.0305 15.0923 13.0936 15.357C11.1169 14.3791 8.76048 14.1529 6.62588 14.7475C1.81109 16.0948 -1.01075 21.108 0.336222 25.9227C1.4274 29.824 5.01623 32.5496 9.06363 32.5496C9.88809 32.5496 10.7113 32.4358 11.5111 32.212C14.6863 31.3244 17.0738 28.6879 18.2342 24.7899C19.2809 21.2731 19.255 17.0168 18.1634 13.1123C16.0377 5.51532 10.7975 0.000732422 5.70186 0.000732422Z" fill="black"/>
</svg>
