<svg width="40" height="34" viewBox="0 0 40 34" fill="none" xmlns="http://www.w3.org/2000/svg"><path d="M12.8023 15.139C11.8171 14.8554 10.8319 14.7115 9.87356 14.7115 8.39368 14.7115 7.15884 15.0497 6.20135 15.4638 7.12443 12.0844 9.34194 6.25348 13.7593 5.59684 14.1684 5.536 14.5037 5.24019 14.6153 4.842L15.5807 1.38882C15.6621 1.09679 15.6139.784203 15.4473.530774 15.2807.277345 15.0131.108253 14.713.0671334 14.387.0226575 14.0547.0 13.7253.0 8.42305.0 3.17194 5.53432.956116 13.4586-.344597 18.1076-.726 25.097 2.47795 29.4964 4.27084 31.9581 6.88653 33.2726 10.2524 33.4039 10.2663 33.4044 10.2797 33.4048 10.2936 33.4048 14.4466 33.4048 18.1293 30.6078 19.2496 26.6037 19.9188 24.21 19.6163 21.6996 18.397 19.5333 17.1907 17.3913 15.204 15.8301 12.8023 15.139z" fill="#000"/><path d="M38.7993 19.5338C37.593 17.3914 35.6062 15.8301 33.2045 15.1391 32.2193 14.8554 31.2342 14.7115 30.2762 14.7115 28.7964 14.7115 27.5611 15.0497 26.6036 15.4638 27.5267 12.0845 29.7442 6.2535 34.162 5.59685 34.5711 5.53601 34.9059 5.2402 35.018 4.84201L35.9834 1.38883C36.0648 1.0968 36.0166.784205 35.85.530775 35.6839.277346 35.4162.108253 35.1157.0671336 34.7901.0226575 34.4578.0 34.128.0 28.8257.0 23.5746 5.53433 21.3584 13.4586 20.0581 18.1076 19.6767 25.0971 22.8811 29.4973 24.6735 31.9585 27.2896 33.2735 30.6551 33.4044 30.669 33.4049 30.6824 33.4053 30.6967 33.4053 34.8493 33.4053 38.5324 30.6083 39.6527 26.6042 40.3211 24.2105 40.0182 21.6997 38.7993 19.5338z" fill="#000"/></svg>