<svg width="40" height="33" viewBox="0 0 40 33" fill="none" xmlns="http://www.w3.org/2000/svg">
<path d="M39.1625 19.4365C37.0381 27.0342 31.7971 32.5496 26.7026 32.5496C26.2934 32.5496 25.8846 32.5139 25.4863 32.4435C25.2605 32.4039 25.063 32.2711 24.9408 32.0784C24.8189 31.8846 24.7845 31.649 24.8465 31.4288L25.8951 27.6777C25.9963 27.3155 26.3456 27.0706 26.7087 27.0872L26.792 27.0889C28.6814 27.0889 32.1342 24.2573 33.8944 17.9641C33.964 17.7143 34.03 17.459 34.0936 17.1926C32.1176 18.1705 29.7604 18.3967 27.6258 17.8022C22.8102 16.4548 19.9892 11.4417 21.3353 6.627C22.4265 2.72574 26.0153 0.000244141 30.0627 0.000244141C30.8872 0.000244141 31.7104 0.113976 32.5098 0.337795C35.6854 1.22538 38.073 3.86183 39.233 7.75985C40.28 11.2766 40.2537 15.5324 39.1625 19.4365Z" fill="black"/>
<path d="M5.70186 32.5488C5.29348 32.5488 4.88429 32.514 4.48643 32.4436C4.26099 32.4047 4.06307 32.2712 3.94124 32.0785C3.81941 31.8846 3.78501 31.6491 3.84653 31.4289L4.89562 27.6778C4.9968 27.3155 5.33962 27.0707 5.70915 27.0873L5.79171 27.0889C7.68104 27.0889 11.1343 24.2573 12.8945 17.964C12.9645 17.7127 13.0305 17.4573 13.0936 17.1926C11.1169 18.1704 8.76048 18.3967 6.62588 17.8021C1.81109 16.4547 -1.01075 11.4416 0.336222 6.62682C1.4274 2.72552 5.01623 0 9.06363 0C9.88809 0 10.7113 0.113731 11.5111 0.337551C14.6863 1.22515 17.0738 3.86163 18.2342 7.75968C19.2809 11.2765 19.255 15.5327 18.1634 19.4373C16.0377 27.0342 10.7975 32.5488 5.70186 32.5488Z" fill="black"/>
</svg>
