<svg width="90" height="78" viewBox="0 0 90 78" fill="none" xmlns="http://www.w3.org/2000/svg"><path d="M88.5001 13.9024h-63V11.1213C25.5001 6.92179 22.1354 3.44004 17.7731 2.86513 17.1802 1.20327 15.4891.0 13.5.0h-9C2.01902.0.0 1.8712.0 4.17054.0 6.46988 2.01902 8.34108 4.5 8.34108h9C15.41 8.34108 17.045 7.23165 17.697 5.6721 20.4342 6.18739 22.5 8.43443 22.5 11.1213V13.9024H18C17.1705 13.9024 16.5001 14.5237 16.5001 15.2925V20.8532C16.5001 21.6205 17.1705 22.2433 18 22.2433H19.7812L27.0323 54.5003C27.0339 54.5072 27.0362 54.5137 27.0378 54.5205 27.0406 54.5319 27.042 54.5432 27.045 54.5546L30.0451 65.6761C30.2131 66.2946 30.8116 66.7285 31.5 66.7285H37.5042C36.5604 67.891 36 69.3354 36 70.899 36 74.7317 39.3645 77.85 43.5001 77.85 47.6355 77.85 51.0001 74.7318 51.0001 70.899 51.0001 69.3354 50.4399 67.891 49.496 66.7285H66.0041C65.0603 67.891 64.4999 69.3354 64.4999 70.899 64.4999 74.7317 67.8644 77.85 72 77.85 76.1354 77.85 79.5001 74.7318 79.5001 70.899 79.5001 69.3354 78.9398 67.891 77.9959 66.7285H82.4999C83.3295 66.7285 83.9999 66.1057 83.9999 65.3383 83.9999 64.571 83.3295 63.9482 82.4999 63.9482H32.6716L30.4212 55.6071H79.5008C80.2343 55.6071 80.8597 55.115 80.9798 54.4464L86.7709 22.2436H88.5001C89.3296 22.2436 90 21.6208 90 20.8535V15.2928C90 14.5239 89.3296 13.9024 88.5001 13.9024zM13.5 5.56067h-9C3.67207 5.56067 3.00006 4.93655 3.00006 4.17054 3.00006 3.40453 3.67207 2.78041 4.5 2.78041h9C14.3279 2.78041 14.9999 3.40453 14.9999 4.17054 14.9999 4.93655 14.3279 5.56067 13.5 5.56067zM48.0001 70.8992C48.0001 73.1985 45.981 75.0697 43.5001 75.0697 41.0191 75.0697 39.0001 73.1985 39.0001 70.8992 39.0001 68.5998 41.0191 66.7286 43.5001 66.7286 45.981 66.7286 48.0001 68.5998 48.0001 70.8992zM76.5 70.8992C76.5 73.1985 74.481 75.0697 72 75.0697 69.519 75.0697 67.5 73.1985 67.5 70.8992 67.5 68.5998 69.519 66.7286 72 66.7286 74.481 66.7286 76.5 68.5998 76.5 70.8992zM78.2302 52.8267h-48.51L22.8444 22.2435H83.729L78.2302 52.8267zm8.7697-33.3635H85.5144C85.5098 19.4632 85.5053 19.4626 85.5007 19.4626H21.0008C20.9962 19.4626 20.992 19.4632 20.9874 19.4632H19.4999V16.6828h67.5v2.7804z" fill="#333"/><path d="M35.9999 45.876C36.8295 45.876 37.4999 45.2532 37.4999 44.4859V30.584C37.4999 29.8167 36.8295 29.1938 35.9999 29.1938 35.1704 29.1938 34.5 29.8167 34.5 30.584V44.4857C34.5 45.2532 35.1704 45.876 35.9999 45.876z" fill="#333"/><path d="M44.9999 45.876C45.8295 45.876 46.4999 45.2532 46.4999 44.4859V30.584C46.4999 29.8167 45.8295 29.1938 44.9999 29.1938 44.1704 29.1938 43.5 29.8167 43.5 30.584V44.4857C43.5 45.2532 44.1704 45.876 44.9999 45.876z" fill="#333"/><path d="M53.9999 45.876C54.8295 45.876 55.4999 45.2532 55.4999 44.4859V30.584C55.4999 29.8167 54.8295 29.1938 53.9999 29.1938 53.1704 29.1938 52.5 29.8167 52.5 30.584V44.4857C52.5 45.2532 53.1704 45.876 53.9999 45.876z" fill="#333"/><path d="M62.9999 45.876C63.8294 45.876 64.4999 45.2532 64.4999 44.4859V30.584C64.4999 29.8167 63.8294 29.1938 62.9999 29.1938 62.1704 29.1938 61.5 29.8167 61.5 30.584V44.4857C61.5 45.2532 62.1704 45.876 62.9999 45.876z" fill="#333"/><path d="M71.9999 45.876C72.8295 45.876 73.4999 45.2532 73.4999 44.4859V30.584C73.4999 29.8167 72.8295 29.1938 71.9999 29.1938 71.1704 29.1938 70.5 29.8167 70.5 30.584V44.4857C70.5 45.2532 71.1704 45.876 71.9999 45.876z" fill="#333"/></svg>