<svg width="40" height="40" viewBox="0 0 40 40" fill="none" xmlns="http://www.w3.org/2000/svg"><path d="M39.8527 8.47252 38.4831 7.10291 11.5388 29.9812V34.0472L12.9084 35.4168C13.1048 35.6131 13.423 35.6131 13.6194 35.4168L39.8528 9.18338C40.049 8.98713 40.049 8.66885 39.8527 8.47252z" fill="#8ca82f"/><path d="M35.2526 4.58318 13.2639 26.5718 4.74741 18.0553C4.55108 17.859 4.2328 17.859 4.03639 18.0553L.147246 21.9446C-.0490821 22.1409-.0490821 22.4592.147246 22.6556L11.5388 34.0471 38.4831 7.10287 35.9635 4.58326C35.7672 4.38685 35.4489 4.38685 35.2526 4.58318z" fill="#a5c244"/><path d="M.5.5h39v39H.5z" stroke="#fff"/></svg>