<svg width="45" height="43" viewBox="0 0 45 43" fill="none" xmlns="http://www.w3.org/2000/svg">
<path d="M45 5.66147C43.3266 6.49391 41.5434 7.04568 39.6844 7.31359C41.5969 6.01868 43.0566 3.98383 43.7428 1.53115C41.9597 2.73676 39.9909 3.58834 37.8928 4.06356C36.1997 2.01913 33.7866 0.75293 31.1541 0.75293C26.0466 0.75293 21.9347 5.45415 21.9347 11.2175C21.9347 12.0467 21.9966 12.8441 22.1484 13.6032C14.4788 13.179 7.69219 9.01037 3.13312 2.66021C2.33719 4.22622 1.87031 6.01868 1.87031 7.94829C1.87031 11.5715 3.51562 14.7832 5.96812 16.6427C4.48594 16.6108 3.03187 16.1228 1.8 15.3542C1.8 15.386 1.8 15.4275 1.8 15.469C1.8 20.5529 4.99781 24.7757 9.19125 25.7485C8.44031 25.9813 7.62187 26.093 6.7725 26.093C6.18188 26.093 5.58562 26.0547 5.02594 25.9144C6.22125 30.0574 9.61313 33.1033 13.6463 33.2022C10.5075 35.9866 6.52219 37.6642 2.20781 37.6642C1.45125 37.6642 0.725625 37.626 0 37.5207C4.08656 40.5092 8.92969 42.2156 14.1525 42.2156C31.1287 42.2156 40.41 26.2684 40.41 12.4454C40.41 11.9829 40.3959 11.5364 40.3763 11.0931C42.2072 9.61955 43.7456 7.77925 45 5.66147Z" fill="#03A9F4"/>
</svg>
