<svg width="45" height="52" viewBox="0 0 45 52" fill="none" xmlns="http://www.w3.org/2000/svg"><g clip-path="url(#clip0)"><path d="M45 10.6615C43.3266 11.4939 41.5434 12.0457 39.6844 12.3136 41.5969 11.0187 43.0566 8.98383 43.7428 6.53115 41.9597 7.73676 39.9909 8.58834 37.8928 9.06356 36.1997 7.01913 33.7866 5.75293 31.1541 5.75293 26.0466 5.75293 21.9347 10.4542 21.9347 16.2175 21.9347 17.0467 21.9966 17.8441 22.1484 18.6032 14.4788 18.179 7.69219 14.0104 3.13312 7.66021 2.33719 9.22622 1.87031 11.0187 1.87031 12.9483 1.87031 16.5715 3.51562 19.7832 5.96812 21.6427 4.48594 21.6108 3.03187 21.1228 1.8 20.3542 1.8 20.386 1.8 20.4275 1.8 20.469 1.8 25.5529 4.99781 29.7757 9.19125 30.7485 8.44031 30.9813 7.62187 31.093 6.7725 31.093 6.18188 31.093 5.58562 31.0547 5.02594 30.9144 6.22125 35.0574 9.61313 38.1033 13.6463 38.2022 10.5075 40.9866 6.52219 42.6642 2.20781 42.6642 1.45125 42.6642.725625 42.626.0 42.5207 4.08656 45.5092 8.92969 47.2156 14.1525 47.2156 31.1287 47.2156 40.41 31.2684 40.41 17.4454 40.41 16.9829 40.3959 16.5364 40.3763 16.0931 42.2072 14.6196 43.7456 12.7793 45 10.6615z" fill="#025880"/></g><defs><clipPath id="clip0"><path d="M0 .96875h45v51.0309H0z" fill="#fff"/></clipPath></defs></svg>