<svg id="Capa_1" xmlns="http://www.w3.org/2000/svg" xmlns:xlink="http://www.w3.org/1999/xlink" viewBox="0 0 512 512" style="enable-background:new 0 0 512 512"><path style="fill:#fe6663" d="M256.127 93v0c-15.464.0-28-12.536-28-28v0c0-15.464 12.536-28 28-28v0c15.464.0 28 12.536 28 28v0C284.127 80.464 271.591 93 256.127 93z"/><path style="fill:#ffc870" d="M410.215 151.671v0c-10.935-10.935-10.935-28.663.0-39.598v0c10.935-10.935 28.663-10.935 39.598.0v0c10.935 10.935 10.935 28.663.0 39.598v0C438.878 162.605 421.15 162.605 410.215 151.671z"/><path style="fill:#a5ddff" d="M446 305.833v0c0-15.464 12.536-28 28-28v0c15.464.0 28 12.536 28 28v0c0 15.464-12.536 28-28 28v0C458.536 333.833 446 321.297 446 305.833z"/><path style="fill:#95e540" d="M66 305.579v0c0 15.464-12.536 28-28 28v0c-15.464.0-28-12.536-28-28v0c0-15.464 12.536-28 28-28v0C53.464 277.579 66 290.115 66 305.579z"/><path style="fill:#58bfff" d="M101.18 150.707v0c-10.935 10.935-28.663 10.935-39.598.0v0c-10.935-10.935-10.935-28.663.0-39.598v0c10.935-10.935 28.663-10.935 39.598.0v0C112.115 122.043 112.115 139.772 101.18 150.707z"/><path style="fill:#a5ddff" d="M300.411 334.398h-88.823c-50.534.0-91.5 40.966-91.5 91.5V475h271.823v-49.102C391.912 375.364 350.946 334.398 300.411 334.398z"/><path style="fill:#fff" d="M306.7 334.398 256 385.098 205.3 334.398z"/><path style="fill:#ffbc53" d="M241.726 175h74.075v36.761c0 19.067-15.457 34.524-34.524 34.524h-85.078v-25.758C196.199 195.383 216.582 175 241.726 175z"/><path style="fill:#ffcdac" d="M315.801 246.284v28.312c0 33.027-26.774 59.801-59.801 59.801v0c-33.027.0-59.801-26.774-59.801-59.801v-28.312H315.801v0z"/><path d="M309.561 324.814c-1.402-.417-2.876-.51-4.315-.299-.168-.008-.337-.012-.505-.019 12.981-12.682 21.061-30.361 21.061-49.899V175c0-5.522-4.478-10-10-10h-74.075c-30.617.0-55.526 24.909-55.526 55.526v54.07c0 19.538 8.08 37.217 21.061 49.899-.168.007-.337.011-.505.019-1.438-.21-2.913-.118-4.315.299-51.696 4.641-92.352 48.2-92.352 101.084V475c0 5.522 4.478 10 10 10h271.824c5.522.0 10-4.478 10-10v-49.102C401.912 373.015 361.257 329.455 309.561 324.814zM282.558 344.397 256 370.955l-26.558-26.558H282.558v0zM206.199 220.526c0-19.589 15.938-35.526 35.526-35.526H305.8v26.761c0 13.522-11.001 24.523-24.523 24.523h-75.078v-1.751L206.199 220.526v0zM206.199 274.597v-18.313h75.078c9.057.0 17.485-2.725 24.523-7.388v25.7c0 27.46-22.341 49.801-49.801 49.801S206.199 302.057 206.199 274.597zM381.912 465H130.088v-28.78h81.604c5.522.0 10-4.478 10-10s-4.478-10-10-10h-81.009c4.42-37.167 33.939-66.726 71.087-71.21l47.159 47.159c1.953 1.952 4.512 2.929 7.071 2.929s5.118-.977 7.071-2.929l47.159-47.159c40.323 4.867 71.682 39.274 71.682 80.888V465z"/><path d="M256 416.22c-2.63.0-5.21 1.07-7.07 2.93s-2.93 4.44-2.93 7.07 1.069 5.21 2.93 7.07c1.86 1.859 4.44 2.93 7.07 2.93s5.21-1.07 7.069-2.93c1.86-1.86 2.931-4.44 2.931-7.07s-1.07-5.21-2.931-7.07C261.21 417.29 258.63 416.22 256 416.22z"/><path d="M246.127 101.655v24.423c0 5.522 4.478 10 10 10 5.522.0 10-4.478 10-10v-24.423c16.116-4.402 28-19.163 28-36.655.0-20.953-17.047-38-38-38s-38 17.047-38 38C218.127 82.492 230.011 97.253 246.127 101.655zm10-54.655c9.925.0 18 8.075 18 18s-8.075 18-18 18-18-8.075-18-18S246.202 47 256.127 47z"/><path d="M386.825 185.061c2.56.0 5.118-.977 7.071-2.929l17.262-17.262c5.68 3.257 12.131 5.002 18.855 5.002 10.15.0 19.692-3.953 26.869-11.13 7.179-7.177 11.132-16.72 11.132-26.87s-3.953-19.693-11.131-26.871c-7.178-7.177-16.72-11.13-26.87-11.13s-19.692 3.953-26.87 11.131c-12.368 12.369-14.402 31.209-6.12 45.718l-17.27 17.27c-3.905 3.905-3.905 10.237.0 14.143C381.707 184.084 384.266 185.061 386.825 185.061zM417.286 119.144c3.509-3.51 8.118-5.264 12.728-5.264s9.219 1.754 12.728 5.264c3.4 3.4 5.273 7.92 5.273 12.729.0 4.808-1.873 9.328-5.273 12.728-7.018 7.018-18.438 7.018-25.455.0C410.268 137.582 410.268 126.162 417.286 119.144z"/><path d="M474 267.833c-17.492.0-32.253 11.884-36.655 28h-24.423c-5.522.0-10 4.478-10 10s4.478 10 10 10h24.423c4.402 16.116 19.163 28 36.655 28 20.953.0 38-17.047 38-38S494.953 267.833 474 267.833zm0 56c-9.925.0-18-8.075-18-18s8.075-18 18-18 18 8.075 18 18-8.074999999999989 18-18 18z"/><path d="M375 315.83c2.63.0 5.21-1.061 7.069-2.931 1.86-1.859 2.931-4.439 2.931-7.069s-1.07-5.2-2.931-7.07c-1.859-1.86-4.439-2.93-7.069-2.93s-5.21 1.069-7.07 2.93-2.93 4.44-2.93 7.07c0 2.64 1.069 5.21 2.93 7.069C369.79 314.77 372.37 315.83 375 315.83z"/><path d="M99.078 295.579H74.655c-4.402-16.116-19.163-28-36.655-28-20.953.0-38 17.047-38 38s17.047 38 38 38c17.492.0 32.253-11.884 36.655-28h24.423c5.522.0 10-4.478 10-10s-4.477000000000004-10-10-10zM38 323.579c-9.925.0-18-8.075-18-18s8.075-18 18-18 18 8.075 18 18S47.925 323.579 38 323.579z"/><path d="M81.381 168.908c6.724.0 13.176-1.745 18.856-5.002l17.262 17.262c1.953 1.952 4.512 2.929 7.071 2.929s5.118-.977 7.071-2.929c3.905-3.905 3.905-10.237.0-14.143l-17.262-17.261c3.258-5.68 5.002-12.132 5.002-18.856.0-10.15-3.953-19.693-11.131-26.871-7.178-7.177-16.72-11.13-26.87-11.13s-19.692 3.953-26.87 11.131c-14.815 14.816-14.815 38.924.0 53.74C61.688 164.955 71.23 168.908 81.381 168.908zM68.653 118.18c3.509-3.509 8.118-5.264 12.728-5.264s9.219 1.755 12.728 5.264c3.4 3.4 5.273 7.92 5.273 12.729.0 4.805-1.872 9.324-5.268 12.723-.001.002-.003.003-.005.005-7.018 7.02-18.438 7.02-25.455.0C61.635 136.618 61.635 125.198 68.653 118.18z"/><g/><g/><g/><g/><g/><g/><g/><g/><g/><g/><g/><g/><g/><g/><g/></svg>